<svg width="375" height="510" viewBox="0 0 375 510" fill="none" xmlns="http://www.w3.org/2000/svg">
<g clip-path="url(#clip0)">
<rect opacity="0.2" width="52.1931" height="52.1931" rx="4.41006" transform="matrix(0.707641 0.706572 -0.707641 0.706572 140.691 301.211)" fill="#FF7F7A"/>
<rect opacity="0.2" width="16.2509" height="16.2509" rx="2.64603" transform="matrix(0.707641 0.706573 -0.707641 0.706573 188.83 318.661)" fill="#DC514C"/>
<path d="M54.3398 429.237H227.97" stroke="#DC514C" stroke-width="1.32302" stroke-miterlimit="10" stroke-linecap="round" stroke-linejoin="round"/>
<path d="M65.8269 429.637V436.572" stroke="#DC514C" stroke-width="1.32302" stroke-miterlimit="10" stroke-linecap="round" stroke-linejoin="round"/>
<path d="M102.689 429.637V436.572" stroke="#DC514C" stroke-width="1.32302" stroke-miterlimit="10" stroke-linecap="round" stroke-linejoin="round"/>
<path d="M139.552 429.637V436.572" stroke="#DC514C" stroke-width="1.32302" stroke-miterlimit="10" stroke-linecap="round" stroke-linejoin="round"/>
<path d="M176.415 429.637V436.572" stroke="#DC514C" stroke-width="1.32302" stroke-miterlimit="10" stroke-linecap="round" stroke-linejoin="round"/>
<path d="M213.278 429.637V436.572" stroke="#DC514C" stroke-width="1.32302" stroke-miterlimit="10" stroke-linecap="round" stroke-linejoin="round"/>
<path d="M250.142 429.637V436.572" stroke="#DC514C" stroke-width="1.32302" stroke-miterlimit="10" stroke-linecap="round" stroke-linejoin="round"/>
<path d="M110.315 330.677H79.6228C78.1785 330.677 77.0952 329.506 77.0952 328.154V326.531C77.0952 325.089 78.2687 324.007 79.6228 324.007H110.315C111.759 324.007 112.843 325.179 112.843 326.531V328.154C112.933 329.506 111.759 330.677 110.315 330.677Z" fill="#F0EEE9" stroke="#8E2D2A" stroke-width="1.32302" stroke-miterlimit="10" stroke-linecap="round" stroke-linejoin="round"/>
<path d="M85.3519 327.763V325.12H90.709V327.763H85.3519Z" fill="white" stroke="#8E2D2A" stroke-width="1.32302"/>
<path d="M127.625 328.785H71.4761V423.607H127.625V328.785Z" fill="white" stroke="#8E2D2A" stroke-width="1.32302" stroke-miterlimit="10" stroke-linecap="round" stroke-linejoin="round"/>
<path d="M153.623 328.785H126.993V423.607H153.623V328.785Z" fill="white" stroke="#8E2D2A" stroke-width="1.32302" stroke-miterlimit="10" stroke-linecap="round" stroke-linejoin="round"/>
<path d="M88.2409 400.635H79.8457V410.46H88.2409V400.635Z" fill="#8E2D2A" stroke="#8E2D2A" stroke-width="1.32302" stroke-miterlimit="10" stroke-linecap="round" stroke-linejoin="round"/>
<path d="M82.4548 407.63L77.5298 410.469L81.3212 417.026L86.2462 414.187L82.4548 407.63Z" fill="#FF7F7A"/>
<path d="M107.038 340.953H118.773" stroke="#8E2D2A" stroke-width="1.32302" stroke-miterlimit="10" stroke-linecap="round" stroke-linejoin="round"/>
<path d="M107.038 344.829H118.773" stroke="#8E2D2A" stroke-width="1.32302" stroke-miterlimit="10" stroke-linecap="round" stroke-linejoin="round"/>
<g filter="url(#filter0_d)">
<circle cx="167.174" cy="423.695" r="46.3056" fill="white"/>
</g>
</g>
<circle opacity="0.2" cx="423.84" cy="203.192" r="108.928" fill="#8E2D2A"/>
<g filter="url(#filter1_d)">
<rect x="192.312" y="223.037" width="317.524" height="246.963" rx="8.82012" fill="white"/>
</g>
<path d="M61.4509 169.234H-62.5143C-64.9499 169.234 -66.9243 171.209 -66.9243 173.644V258.713C-66.9243 261.148 -64.9499 263.123 -62.5142 263.123H61.4509C63.8866 263.123 65.861 261.148 65.861 258.713V173.644C65.861 171.209 63.8865 169.234 61.4509 169.234Z" fill="#F0EEE9" stroke="#8E2D2A" stroke-width="1.32302" stroke-miterlimit="10" stroke-linecap="round" stroke-linejoin="round"/>
<path d="M54.7175 182.86H-54.652C-57.0876 182.86 -59.062 184.834 -59.062 187.27V244.125C-59.062 246.56 -57.0876 248.535 -54.652 248.535H54.7175C57.1531 248.535 59.1275 246.56 59.1275 244.125V187.27C59.1275 184.834 57.1531 182.86 54.7175 182.86Z" fill="white" stroke="#8E2D2A" stroke-width="1.32302" stroke-miterlimit="10" stroke-linecap="round" stroke-linejoin="round"/>
<path d="M20.3192 204.028H-0.849121V248.128H20.3192V204.028Z" fill="#DC514C"/>
<path d="M44.1334 219.022H22.9651V248.129H44.1334V219.022Z" fill="#DC514C"/>
<path d="M-67 253.421H60.8917" stroke="#8E2D2A" stroke-width="1.32302" stroke-miterlimit="10" stroke-linecap="round" stroke-linejoin="round"/>
<path d="M42.2695 224.639H54.1346" stroke="#8E2D2A" stroke-width="1.32302" stroke-miterlimit="10" stroke-linecap="round" stroke-linejoin="round"/>
<path d="M42.2695 231.655H54.1346" stroke="#8E2D2A" stroke-width="1.32302" stroke-miterlimit="10" stroke-linecap="round" stroke-linejoin="round"/>
<path d="M42.2695 238.671C45.1584 238.671 48.0473 238.671 50.9362 238.671" stroke="#8E2D2A" stroke-width="1.32302" stroke-miterlimit="10" stroke-linecap="round" stroke-linejoin="round"/>
<g filter="url(#filter2_d)">
<circle cx="89.5571" cy="77.9457" r="46.3056" fill="white"/>
</g>
<g filter="url(#filter3_d)">
<circle cx="241.263" cy="140.569" r="46.3056" fill="white"/>
</g>
<g filter="url(#filter4_d)">
<circle cx="103.669" cy="242" r="46.3056" fill="white"/>
</g>
<g filter="url(#filter5_d)">
<circle cx="27.8164" cy="354.016" r="46.3056" fill="white"/>
</g>
<g filter="url(#filter6_d)">
<circle cx="359.453" cy="60.3056" r="46.3056" fill="white"/>
</g>
<defs>
<filter id="filter0_d" x="94.4083" y="364.159" width="145.532" height="145.532" filterUnits="userSpaceOnUse" color-interpolation-filters="sRGB">
<feFlood flood-opacity="0" result="BackgroundImageFix"/>
<feColorMatrix in="SourceAlpha" type="matrix" values="0 0 0 0 0 0 0 0 0 0 0 0 0 0 0 0 0 0 127 0"/>
<feOffset dy="13.2302"/>
<feGaussianBlur stdDeviation="13.2302"/>
<feColorMatrix type="matrix" values="0 0 0 0 0.00392157 0 0 0 0 0.129412 0 0 0 0 0.12549 0 0 0 0.5 0"/>
<feBlend mode="normal" in2="BackgroundImageFix" result="effect1_dropShadow"/>
<feBlend mode="normal" in="SourceGraphic" in2="effect1_dropShadow" result="shape"/>
</filter>
<filter id="filter1_d" x="178.199" y="212.453" width="345.749" height="275.188" filterUnits="userSpaceOnUse" color-interpolation-filters="sRGB">
<feFlood flood-opacity="0" result="BackgroundImageFix"/>
<feColorMatrix in="SourceAlpha" type="matrix" values="0 0 0 0 0 0 0 0 0 0 0 0 0 0 0 0 0 0 127 0"/>
<feOffset dy="3.52805"/>
<feGaussianBlur stdDeviation="7.05609"/>
<feColorMatrix type="matrix" values="0 0 0 0 0.00392157 0 0 0 0 0.129412 0 0 0 0 0.12549 0 0 0 0.16 0"/>
<feBlend mode="normal" in2="BackgroundImageFix" result="effect1_dropShadow"/>
<feBlend mode="normal" in="SourceGraphic" in2="effect1_dropShadow" result="shape"/>
</filter>
<filter id="filter2_d" x="16.7911" y="18.41" width="145.532" height="145.532" filterUnits="userSpaceOnUse" color-interpolation-filters="sRGB">
<feFlood flood-opacity="0" result="BackgroundImageFix"/>
<feColorMatrix in="SourceAlpha" type="matrix" values="0 0 0 0 0 0 0 0 0 0 0 0 0 0 0 0 0 0 127 0"/>
<feOffset dy="13.2302"/>
<feGaussianBlur stdDeviation="13.2302"/>
<feColorMatrix type="matrix" values="0 0 0 0 0.00392157 0 0 0 0 0.129412 0 0 0 0 0.12549 0 0 0 0.5 0"/>
<feBlend mode="normal" in2="BackgroundImageFix" result="effect1_dropShadow"/>
<feBlend mode="normal" in="SourceGraphic" in2="effect1_dropShadow" result="shape"/>
</filter>
<filter id="filter3_d" x="168.497" y="81.0328" width="145.532" height="145.532" filterUnits="userSpaceOnUse" color-interpolation-filters="sRGB">
<feFlood flood-opacity="0" result="BackgroundImageFix"/>
<feColorMatrix in="SourceAlpha" type="matrix" values="0 0 0 0 0 0 0 0 0 0 0 0 0 0 0 0 0 0 127 0"/>
<feOffset dy="13.2302"/>
<feGaussianBlur stdDeviation="13.2302"/>
<feColorMatrix type="matrix" values="0 0 0 0 0.00392157 0 0 0 0 0.129412 0 0 0 0 0.12549 0 0 0 0.5 0"/>
<feBlend mode="normal" in2="BackgroundImageFix" result="effect1_dropShadow"/>
<feBlend mode="normal" in="SourceGraphic" in2="effect1_dropShadow" result="shape"/>
</filter>
<filter id="filter4_d" x="30.9034" y="182.464" width="145.532" height="145.532" filterUnits="userSpaceOnUse" color-interpolation-filters="sRGB">
<feFlood flood-opacity="0" result="BackgroundImageFix"/>
<feColorMatrix in="SourceAlpha" type="matrix" values="0 0 0 0 0 0 0 0 0 0 0 0 0 0 0 0 0 0 127 0"/>
<feOffset dy="13.2302"/>
<feGaussianBlur stdDeviation="13.2302"/>
<feColorMatrix type="matrix" values="0 0 0 0 0.00392157 0 0 0 0 0.129412 0 0 0 0 0.12549 0 0 0 0.5 0"/>
<feBlend mode="normal" in2="BackgroundImageFix" result="effect1_dropShadow"/>
<feBlend mode="normal" in="SourceGraphic" in2="effect1_dropShadow" result="shape"/>
</filter>
<filter id="filter5_d" x="-44.9496" y="294.48" width="145.532" height="145.532" filterUnits="userSpaceOnUse" color-interpolation-filters="sRGB">
<feFlood flood-opacity="0" result="BackgroundImageFix"/>
<feColorMatrix in="SourceAlpha" type="matrix" values="0 0 0 0 0 0 0 0 0 0 0 0 0 0 0 0 0 0 127 0"/>
<feOffset dy="13.2302"/>
<feGaussianBlur stdDeviation="13.2302"/>
<feColorMatrix type="matrix" values="0 0 0 0 0.00392157 0 0 0 0 0.129412 0 0 0 0 0.12549 0 0 0 0.5 0"/>
<feBlend mode="normal" in2="BackgroundImageFix" result="effect1_dropShadow"/>
<feBlend mode="normal" in="SourceGraphic" in2="effect1_dropShadow" result="shape"/>
</filter>
<filter id="filter6_d" x="286.687" y="0.769826" width="145.532" height="145.532" filterUnits="userSpaceOnUse" color-interpolation-filters="sRGB">
<feFlood flood-opacity="0" result="BackgroundImageFix"/>
<feColorMatrix in="SourceAlpha" type="matrix" values="0 0 0 0 0 0 0 0 0 0 0 0 0 0 0 0 0 0 127 0"/>
<feOffset dy="13.2302"/>
<feGaussianBlur stdDeviation="13.2302"/>
<feColorMatrix type="matrix" values="0 0 0 0 0.00392157 0 0 0 0 0.129412 0 0 0 0 0.12549 0 0 0 0.5 0"/>
<feBlend mode="normal" in2="BackgroundImageFix" result="effect1_dropShadow"/>
<feBlend mode="normal" in="SourceGraphic" in2="effect1_dropShadow" result="shape"/>
</filter>
<clipPath id="clip0">
<rect width="198" height="208.788" fill="white" transform="translate(53 301.211)"/>
</clipPath>
</defs>
</svg>
