<svg width="140" height="125" viewBox="0 0 140 125" fill="none" xmlns="http://www.w3.org/2000/svg">
<g clip-path="url(#clip0)">
<rect opacity="0.2" x="69.6523" y="11" width="39.1074" height="39.1074" rx="5" transform="rotate(45 69.6523 11)" fill="#FF7F7A"/>
<rect opacity="0.2" x="105.695" y="24.0845" width="12.1765" height="12.1765" rx="3" transform="rotate(45 105.695 24.0845)" fill="#DC514C"/>
<path d="M5 107H135" stroke="#DC514C" stroke-width="1.5" stroke-miterlimit="10" stroke-linecap="round" stroke-linejoin="round"/>
<path d="M13.5996 107.3V112.5" stroke="#DC514C" stroke-width="1.5" stroke-miterlimit="10" stroke-linecap="round" stroke-linejoin="round"/>
<path d="M41.2002 107.3V112.5" stroke="#DC514C" stroke-width="1.5" stroke-miterlimit="10" stroke-linecap="round" stroke-linejoin="round"/>
<path d="M68.7998 107.3V112.5" stroke="#DC514C" stroke-width="1.5" stroke-miterlimit="10" stroke-linecap="round" stroke-linejoin="round"/>
<path d="M96.4004 107.3V112.5" stroke="#DC514C" stroke-width="1.5" stroke-miterlimit="10" stroke-linecap="round" stroke-linejoin="round"/>
<path d="M124 107.3V112.5" stroke="#DC514C" stroke-width="1.5" stroke-miterlimit="10" stroke-linecap="round" stroke-linejoin="round"/>
<path d="M39.0793 33.0951H16.0995C15.0181 33.0951 14.207 32.2165 14.207 31.2027V29.9861C14.207 28.9047 15.0857 28.0936 16.0995 28.0936H39.0793C40.1607 28.0936 40.9717 28.9723 40.9717 29.9861V31.2027C41.0393 32.2165 40.1607 33.0951 39.0793 33.0951Z" fill="#F0EEE9" stroke="#8E2D2A" stroke-width="1.5" stroke-miterlimit="10" stroke-linecap="round" stroke-linejoin="round"/>
<path d="M20.6436 30.6556V29.1818H24.145V30.6556H20.6436Z" fill="white" stroke="#8E2D2A" stroke-width="1.5"/>
<path d="M52.0395 31.676H10V102.778H52.0395V31.676Z" fill="white" stroke="#8E2D2A" stroke-width="1.5" stroke-miterlimit="10" stroke-linecap="round" stroke-linejoin="round"/>
<path d="M71.5048 31.676H51.5664V102.778H71.5048V31.676Z" fill="white" stroke="#8E2D2A" stroke-width="1.5" stroke-miterlimit="10" stroke-linecap="round" stroke-linejoin="round"/>
<path d="M22.5523 85.553H16.2666V92.9201H22.5523V85.553Z" fill="white" stroke="#8E2D2A" stroke-width="1.5" stroke-miterlimit="10" stroke-linecap="round" stroke-linejoin="round"/>
<path d="M18.2207 90.7982L14.5332 92.9272L17.3719 97.8438L21.0593 95.7148L18.2207 90.7982Z" fill="white" stroke="#8E2D2A" stroke-width="1.5" stroke-miterlimit="10" stroke-linecap="round" stroke-linejoin="round"/>
<path d="M36.626 40.8002H45.4124" stroke="#8E2D2A" stroke-width="1.5" stroke-miterlimit="10" stroke-linecap="round" stroke-linejoin="round"/>
<path d="M36.626 43.7067H45.4124" stroke="#8E2D2A" stroke-width="1.5" stroke-miterlimit="10" stroke-linecap="round" stroke-linejoin="round"/>
<path d="M115.061 57.0058L65.5946 49.8501C64.5014 49.6919 63.487 50.4499 63.3289 51.5431L57.2856 93.3189C57.1275 94.4121 57.8855 95.4265 58.9787 95.5847L108.445 102.74C109.538 102.899 110.553 102.141 110.711 101.047L116.754 59.2716C116.912 58.1784 116.154 57.164 115.061 57.0058Z" fill="#F0EEE9" stroke="#8E2D2A" stroke-width="1.5" stroke-miterlimit="10" stroke-linecap="round" stroke-linejoin="round"/>
<path d="M97.1437 77.0959L91.9424 76.3434L91.19 81.5448L96.3913 82.2972L97.1437 77.0959Z" fill="#DC514C"/>
<path d="M110.234 75.7653L92.8436 73.2495C90.6887 72.9378 89.1952 70.9391 89.5069 68.7842L89.6574 67.744C89.9691 65.5891 91.9678 64.0956 94.1227 64.4073L111.514 66.923L110.234 75.7653Z" fill="#8E2D2A"/>
<path d="M84.8243 82.5583L65.9509 79.8281L67.2354 70.9487L86.1088 73.6789C88.2636 73.9906 89.7572 75.9894 89.4454 78.1442L89.295 79.1845C88.9779 81.3765 86.9791 82.87 84.8243 82.5583Z" fill="#8E2D2A"/>
<path d="M75.8117 63.5792L70.6104 62.8268L69.8579 68.0281L75.0593 68.7805L75.8117 63.5792Z" fill="white" stroke="#8E2D2A" stroke-width="1.5" stroke-miterlimit="10" stroke-linecap="round" stroke-linejoin="round"/>
<path d="M90.624 60.5637L71.9735 57.8657C71.4905 57.7959 71.141 57.3281 71.2109 56.8451C71.2807 56.3621 71.7485 56.0125 72.2315 56.0824L90.882 58.7804C91.365 58.8503 91.7145 59.318 91.6447 59.801C91.5748 60.284 91.107 60.6336 90.624 60.5637Z" fill="#8E2D2A"/>
<path d="M87.215 65.2288L82.0137 64.4764L81.2613 69.6777L86.4626 70.4301L87.215 65.2288Z" fill="white" stroke="#8E2D2A" stroke-width="1.5" stroke-miterlimit="10" stroke-linecap="round" stroke-linejoin="round"/>
<path d="M98.6222 66.8789L93.4209 66.1265L92.6685 71.3279L97.8698 72.0803L98.6222 66.8789Z" fill="#F0EEE9"/>
<path d="M109.136 68.3998L103.935 67.6474L103.182 72.8487L108.383 73.6012L109.136 68.3998Z" fill="#F0EEE9"/>
<path d="M74.3341 73.7962L69.1328 73.0438L68.3804 78.2451L73.5817 78.9975L74.3341 73.7962Z" fill="#F0EEE9"/>
<path d="M85.7365 75.4457L80.5352 74.6933L79.7827 79.8946L84.9841 80.6471L85.7365 75.4457Z" fill="#F0EEE9"/>
<path d="M70.6104 62.8268L75.0964 68.7859" stroke="#8E2D2A" stroke-width="1.5" stroke-miterlimit="10" stroke-linecap="round" stroke-linejoin="round"/>
<path d="M82.0137 64.4764L86.4626 70.4301" stroke="#8E2D2A" stroke-width="1.5" stroke-miterlimit="10" stroke-linecap="round" stroke-linejoin="round"/>
<path d="M68.9639 47.72L68.2652 52.5498" stroke="#8E2D2A" stroke-width="1.5" stroke-miterlimit="10" stroke-linecap="round" stroke-linejoin="round"/>
<path d="M75.168 48.6178L74.4693 53.4476" stroke="#8E2D2A" stroke-width="1.5" stroke-miterlimit="10" stroke-linecap="round" stroke-linejoin="round"/>
<path d="M81.373 49.5151L80.6744 54.3449" stroke="#8E2D2A" stroke-width="1.5" stroke-miterlimit="10" stroke-linecap="round" stroke-linejoin="round"/>
<path d="M87.5771 50.4127L86.8785 55.2425" stroke="#8E2D2A" stroke-width="1.5" stroke-miterlimit="10" stroke-linecap="round" stroke-linejoin="round"/>
<path d="M93.7822 51.3102L93.0835 56.1401" stroke="#8E2D2A" stroke-width="1.5" stroke-miterlimit="10" stroke-linecap="round" stroke-linejoin="round"/>
<path d="M106.191 53.1053L105.493 57.9352" stroke="#8E2D2A" stroke-width="1.5" stroke-miterlimit="10" stroke-linecap="round" stroke-linejoin="round"/>
<path d="M99.9863 52.2078L99.2877 57.0376" stroke="#8E2D2A" stroke-width="1.5" stroke-miterlimit="10" stroke-linecap="round" stroke-linejoin="round"/>
<path d="M112.358 53.9977L111.66 58.8276" stroke="#8E2D2A" stroke-width="1.5" stroke-miterlimit="10" stroke-linecap="round" stroke-linejoin="round"/>
</g>
<defs>
<clipPath id="clip0">
<rect width="140" height="125" fill="white"/>
</clipPath>
</defs>
</svg>
