<svg width="28" height="28" viewBox="0 0 24 24" fill="none" xmlns="http://www.w3.org/2000/svg">
      <path d="M18.6055 8C18.6055 6.4087 17.9733 4.88258 16.8481 3.75736C15.7229 2.63214 14.1968 2 12.6055 2C11.0142 2 9.48805 2.63214 8.36283 3.75736C7.23761 4.88258 6.60547 6.4087 6.60547 8C6.60547 15 3.60547 17 3.60547 17H21.6055C21.6055 17 18.6055 15 18.6055 8Z" fill="#00908A" stroke="#00908A" strokeWidth="1.5" strokeLinecap="round" strokeLinejoin="round" />
      <path d="M14.335 21C14.1592 21.3031 13.9068 21.5547 13.6032 21.7295C13.2996 21.9044 12.9554 21.9965 12.605 21.9965C12.2546 21.9965 11.9104 21.9044 11.6068 21.7295C11.3032 21.5547 11.0508 21.3031 10.875 21" stroke="#00908A" strokeWidth="1.5" strokeLinecap="round" strokeLinejoin="round" />
    </svg>