<svg width="140" height="125" viewBox="0 0 140 125" fill="none" xmlns="http://www.w3.org/2000/svg">
<circle opacity="0.2" cx="73" cy="51" r="48" fill="#00908A"/>
<path d="M14.9317 118.367L75.6157 112.166C78.3629 111.885 80.3623 109.431 80.0816 106.683L72.1409 28.9741C71.8602 26.227 69.4056 24.2276 66.6585 24.5083L5.97451 30.7093C3.2274 30.99 1.22797 33.4445 1.50869 36.1916L9.44937 113.901C9.73008 116.648 12.1846 118.648 14.9317 118.367Z" fill="white" stroke="#004B48" stroke-width="1.5" stroke-miterlimit="10" stroke-linecap="round" stroke-linejoin="round"/>
<path opacity="0.5" d="M18.1886 58.9229C20.4711 54.1055 24.2616 50.1633 28.9857 47.6935C33.7099 45.2236 39.1103 44.3608 44.3688 45.2356C49.6274 46.1105 54.4575 48.6753 58.1275 52.5417C61.7976 56.408 64.1075 61.3651 64.7074 66.6621L40.3452 69.4211L18.1886 58.9229Z" fill="#00908A"/>
<path opacity="0.8" d="M55.8298 50.4118C60.8714 54.5185 64.0751 60.4599 64.7361 66.9287L40.3452 69.4211L55.8298 50.4118Z" fill="#00908A"/>
<path d="M64.7293 66.9262C66.0928 80.2703 56.4079 92.4188 42.8337 93.8059C29.4895 95.1694 17.341 85.4845 15.9539 71.9102C14.5669 58.336 24.2753 46.4176 37.8496 45.0305C51.4239 43.6435 63.1541 51.5113 64.7293 66.9262Z" stroke="#004B48" stroke-width="1.5" stroke-miterlimit="10" stroke-linecap="round" stroke-linejoin="round"/>
<path d="M56.1333 50.3333L40.5774 69.3941L64.735 66.9256" stroke="#004B48" stroke-width="1.5" stroke-miterlimit="10" stroke-linecap="round" stroke-linejoin="round"/>
<path d="M18.5859 58.8551L40.5855 69.3932" stroke="#004B48" stroke-width="1.5" stroke-miterlimit="10" stroke-linecap="round" stroke-linejoin="round"/>
<path d="M55.7031 96.9077L66.0564 95.8498" stroke="#004B48" stroke-width="1.5" stroke-miterlimit="10" stroke-linecap="round" stroke-linejoin="round"/>
<path d="M56.1494 101.279L66.5027 100.221" stroke="#004B48" stroke-width="1.5" stroke-miterlimit="10" stroke-linecap="round" stroke-linejoin="round"/>
<rect x="62.8482" y="63.9675" width="59.8586" height="27.3402" rx="1.25" transform="rotate(8.33711 62.8482 63.9675)" fill="white" stroke="#004B48" stroke-width="1.5"/>
<g opacity="0.5">
<path d="M63.4131 64.7112L118.644 72.8051L115.528 94.0684C115.368 95.1613 114.352 95.9174 113.259 95.7573L60.007 87.9534L63.4131 64.7112Z" fill="#00908A"/>
</g>
<rect x="56.9009" y="55.9615" width="60.2293" height="27.3402" rx="1.25" transform="rotate(8.33711 56.9009 55.9615)" fill="white" stroke="#004B48" stroke-width="1.5"/>
<ellipse opacity="0.5" rx="10.4209" ry="11.8837" transform="matrix(0.989663 0.143411 -0.146373 0.98923 88.2329 75.6759)" fill="#00908A"/>
<path d="M95.2646 76.0412C94.24 82.9657 88.5297 87.6971 82.6769 86.849C76.8241 86.0009 72.7243 79.8479 73.7489 72.9234C74.7735 65.9989 80.4838 61.2674 86.3366 62.1155C92.1894 62.9637 96.2892 69.1167 95.2646 76.0412Z" stroke="#004B48" stroke-width="1.5"/>
<g clip-path="url(#clip0)">
<path d="M85.9912 67.4875L84.2083 79.6538" stroke="#004B48" stroke-width="1.5" stroke-linecap="round" stroke-linejoin="round"/>
<path d="M88.402 70.1005L84.2973 69.499C83.7893 69.4245 83.2722 69.557 82.8598 69.8674C82.4474 70.1777 82.1734 70.6405 82.0982 71.1538C82.023 71.6671 82.1526 72.189 82.4587 72.6047C82.7647 73.0203 83.222 73.2956 83.73 73.37L86.4665 73.7711C86.9745 73.8455 87.4318 74.1208 87.7378 74.5365C88.0439 74.9521 88.1735 75.474 88.0983 75.9873C88.0231 76.5006 87.7491 76.9634 87.3367 77.2737C86.9243 77.5841 86.4072 77.7166 85.8992 77.6421L81.2473 76.9604" stroke="#004B48" stroke-width="1.5" stroke-linecap="round" stroke-linejoin="round"/>
</g>
<path d="M61.9848 84.8157C62.829 79.5114 59.2135 74.527 53.9092 73.6827" stroke="#004B48" stroke-width="1.5"/>
<path d="M66.3459 57.3255C65.5016 62.6298 60.5172 66.2454 55.2129 65.4011" stroke="#004B48" stroke-width="1.5"/>
<path d="M102.191 91.0376C102.979 85.7247 107.925 82.0569 113.238 82.8453" stroke="#004B48" stroke-width="1.5"/>
<path d="M106.276 63.505C105.488 68.8179 109.156 73.7639 114.469 74.5524" stroke="#004B48" stroke-width="1.5"/>
<g clip-path="url(#clip1)">
<path d="M12.0479 34.683L13.32 46.9132" stroke="#004B48" stroke-width="1.5" stroke-linecap="round" stroke-linejoin="round"/>
<path d="M15.0293 36.6206L10.9031 37.0498C10.3924 37.103 9.92396 37.3589 9.6008 37.7613C9.27764 38.1638 9.12625 38.6798 9.17992 39.1958C9.2336 39.7119 9.48795 40.1857 9.88702 40.513C10.2861 40.8403 10.7972 40.9944 11.3079 40.9413L14.0587 40.6551C14.5694 40.602 15.0805 40.7561 15.4795 41.0834C15.8786 41.4107 16.133 41.8845 16.1866 42.4006C16.2403 42.9166 16.0889 43.4326 15.7658 43.8351C15.4426 44.2375 14.9741 44.4934 14.4635 44.5466L9.78708 45.033" stroke="#004B48" stroke-width="1.5" stroke-linecap="round" stroke-linejoin="round"/>
</g>
<defs>
<clipPath id="clip0">
<rect width="13.2751" height="13.414" fill="white" transform="translate(79.5029 65.9719) rotate(8.33711)"/>
</clipPath>
<clipPath id="clip1">
<rect width="13.2751" height="13.414" fill="white" transform="translate(5.38672 34.814) rotate(-5.93832)"/>
</clipPath>
</defs>
</svg>
