<svg width="51" height="50" viewBox="0 0 51 50" fill="none" xmlns="http://www.w3.org/2000/svg">
<path d="M9.52734 14.5833C9.52734 12.6657 11.0819 11.1111 12.9996 11.1111H44.944V25H9.52734V14.5833Z" fill="#C1CCCD"/>
<path d="M40.0833 8.33334H10.9167C8.61548 8.33334 6.75 10.1988 6.75 12.5V41.6667C6.75 43.9679 8.61548 45.8333 10.9167 45.8333H40.0833C42.3845 45.8333 44.25 43.9679 44.25 41.6667V12.5C44.25 10.1988 42.3845 8.33334 40.0833 8.33334Z" stroke="#004B48" stroke-width="2.77778" stroke-linecap="round" stroke-linejoin="round"/>
<path d="M33.833 4.16666V12.5" stroke="#004B48" stroke-width="2.77778" stroke-linecap="round" stroke-linejoin="round"/>
<path d="M17.167 4.16666V12.5" stroke="#004B48" stroke-width="2.77778" stroke-linecap="round" stroke-linejoin="round"/>
<path d="M6.75 20.8333H44.25" stroke="#004B48" stroke-width="2.77778" stroke-linecap="round" stroke-linejoin="round"/>
<rect x="12.3057" y="28.4722" width="4.16667" height="4.16667" fill="#C1CCCD"/>
<rect x="12.3057" y="35.4167" width="4.16667" height="4.16667" fill="#C1CCCD"/>
<rect x="19.9443" y="28.4722" width="4.16667" height="4.16667" fill="#C1CCCD"/>
<rect x="19.9443" y="35.4167" width="4.16667" height="4.16667" fill="#C1CCCD"/>
<rect x="27.583" y="28.4722" width="4.16667" height="4.16667" fill="#C1CCCD"/>
<rect x="27.583" y="35.4167" width="4.16667" height="4.16667" fill="#C1CCCD"/>
<rect x="35.2227" y="28.4722" width="4.16667" height="4.16667" fill="#C1CCCD"/>
<rect x="35.2227" y="35.4167" width="4.16667" height="4.16667" fill="#C1CCCD"/>
</svg>
