<svg width="134" height="16" viewBox="0 0 134 16" fill="none" xmlns="http://www.w3.org/2000/svg">
<path d="M59.5016 6.72192H51.9414V8.66007H59.5016V6.72192Z" fill="white"/>
<path d="M48.5893 15.794H46.7095L36.4521 3.09293V15.794H34.5723V0.371277H36.6973L46.7095 12.7012V0.371277H48.5893V15.794Z" fill="white"/>
<path d="M133.999 15.794H132.12L121.862 3.09293V15.794H119.941V0.371277H122.107L132.079 12.7012V0.371277H133.999V15.794Z" fill="white"/>
<path d="M62.3623 15.794H51.4102V0.371277H62.3623V2.30942H53.3309V13.8558H62.3623V15.794Z" fill="white"/>
<path d="M94.1152 0.371277H81.2832V2.30942H94.1152V0.371277Z" fill="white"/>
<path d="M88.3934 0.536011H86.4727V15.7525H88.3934V0.536011Z" fill="white"/>
<path d="M98.4051 0.371277H96.4844V15.794H98.4051V0.371277Z" fill="white"/>
<path d="M65.6311 15.8352L63.0156 15.7527L70.8211 7.87643L63.3834 0.371277H66.0806L72.8644 7.21664C73.0278 7.38159 73.1504 7.62901 73.1504 7.87643C73.1504 8.12385 73.0687 8.37128 72.8644 8.53623L65.6311 15.8352Z" fill="white"/>
<path d="M74.458 6.22695L73.1094 4.86612L77.6047 0.371277H80.3018L74.458 6.22695Z" fill="white"/>
<path d="M77.9724 15.7941L73.1094 10.8869L74.458 9.52603L80.6696 15.7941H77.9724Z" fill="white"/>
<path d="M24.3966 15.9998C20.024 15.9998 16.4277 12.4534 16.4277 8.04103C16.4686 3.6699 20.024 0.123505 24.3966 0.123505C28.7693 0.123505 32.3655 3.6699 32.3655 8.08227C32.3655 12.4534 28.8102 15.9998 24.3966 15.9998ZM24.3966 2.06165C21.0456 2.06165 18.3484 4.7833 18.3484 8.08227C18.3484 11.3812 21.0456 14.1029 24.3966 14.1029C27.7477 14.1029 30.4448 11.4225 30.4448 8.08227C30.4448 4.74206 27.7477 2.06165 24.3966 2.06165Z" fill="white"/>
<path d="M109.194 16C104.821 16 101.225 12.4536 101.225 8.04122C101.225 3.67009 104.78 0.0824585 109.194 0.0824585C113.607 0.0824585 117.162 3.62885 117.162 8.04122C117.122 12.4536 113.566 16 109.194 16ZM109.194 2.06184C105.842 2.06184 103.145 4.78349 103.145 8.08246C103.145 11.3814 105.842 14.1031 109.194 14.1031C112.545 14.1031 115.242 11.3814 115.242 8.08246C115.242 4.78349 112.504 2.06184 109.194 2.06184Z" fill="white"/>
<path d="M7.64196 15.9588C3.43275 15.9588 0 12.4124 0 8C0 3.58763 3.43275 0 7.64196 0C10.5843 0 13.3224 1.81443 14.5483 4.65979L14.9161 5.52577L13.1998 6.30928L12.832 5.4433C11.892 3.29897 9.84874 1.93814 7.64196 1.93814C4.49527 1.93814 1.92071 4.65979 1.92071 8C1.92071 11.3402 4.49527 14.0619 7.64196 14.0619C9.84874 14.0619 11.892 12.701 12.832 10.5567L13.1998 9.69072L14.9161 10.4742L14.5483 11.3402C13.3224 14.1443 10.5843 15.9588 7.64196 15.9588Z" fill="white"/>
</svg>
