<svg width="8" height="16" viewBox="0 0 8 16" fill="none" xmlns="http://www.w3.org/2000/svg">
<path d="M4.44241 15.8167C4.4426 15.8165 4.44282 15.8163 4.443 15.8161L7.693 12.5504C7.93647 12.3057 7.93556 11.91 7.69088 11.6665C7.44622 11.423 7.0505 11.4239 6.807 11.6686L4.625 13.8612L4.625 0.625C4.625 0.279812 4.34519 -1.54293e-07 4.00001 -1.69381e-07C3.65482 -1.8447e-07 3.37501 0.279812 3.37501 0.625L3.37501 13.8612L1.19301 11.6686C0.949508 11.4239 0.553789 11.423 0.309133 11.6665C0.0644145 11.91 0.0635709 12.3058 0.307008 12.5504L3.55701 15.8162C3.55719 15.8163 3.55741 15.8165 3.5576 15.8167C3.80191 16.0615 4.19891 16.0607 4.44241 15.8167Z" fill="black"/>
</svg>
