<svg width="200" height="24" viewBox="0 0 200 24" fill="none" xmlns="http://www.w3.org/2000/svg">
<g clip-path="url(#clip0)">
<path d="M88.8074 10.0327H77.5234V12.9255H88.8074V10.0327Z" fill="white"/>
<path d="M72.5226 23.5731H69.7168L54.4073 4.61636V23.5731H51.6016V0.554199H54.7733L69.7168 18.957V0.554199H72.5226V23.5731Z" fill="white"/>
<path d="M199.998 23.5731H197.192L181.882 4.61636V23.5731H179.016V0.554199H182.248L197.131 18.957V0.554199H199.998V23.5731Z" fill="white"/>
<path d="M93.0769 23.5731H76.7305V0.554199H93.0769V3.44695H79.5972V20.6804H93.0769V23.5731Z" fill="white"/>
<path d="M140.469 0.554199H121.316V3.44695H140.469V0.554199Z" fill="white"/>
<path d="M131.929 0.800049H129.062V23.5112H131.929V0.800049Z" fill="white"/>
<path d="M146.875 0.554199H144.008V23.5731H146.875V0.554199Z" fill="white"/>
<path d="M97.9583 23.6347L94.0547 23.5116L105.705 11.7559L94.6036 0.554199H98.6293L108.754 10.7712C108.998 11.0173 109.181 11.3866 109.181 11.7559C109.181 12.1252 109.059 12.4945 108.754 12.7407L97.9583 23.6347Z" fill="white"/>
<path d="M111.13 9.29401L109.117 7.26293L115.827 0.554199H119.852L111.13 9.29401Z" fill="white"/>
<path d="M116.376 23.5733L109.117 16.2491L111.13 14.218L120.401 23.5733H116.376Z" fill="white"/>
<path d="M36.4134 23.8803C29.887 23.8803 24.5195 18.5872 24.5195 12.0015C24.5805 5.47745 29.887 0.184326 36.4134 0.184326C42.9398 0.184326 48.3073 5.47745 48.3073 12.0631C48.3073 18.5872 43.0008 23.8803 36.4134 23.8803ZM36.4134 3.07708C31.4119 3.07708 27.3863 7.13924 27.3863 12.0631C27.3863 16.9869 31.4119 21.0491 36.4134 21.0491C41.4149 21.0491 45.4405 17.0485 45.4405 12.0631C45.4405 7.0777 41.4149 3.07708 36.4134 3.07708Z" fill="white"/>
<path d="M162.976 23.8806C156.45 23.8806 151.082 18.5874 151.082 12.0018C151.082 5.47772 156.389 0.123047 162.976 0.123047C169.563 0.123047 174.87 5.41617 174.87 12.0018C174.809 18.5874 169.502 23.8806 162.976 23.8806ZM162.976 3.07735C157.974 3.07735 153.949 7.13951 153.949 12.0633C153.949 16.9872 157.974 21.0493 162.976 21.0493C167.977 21.0493 172.003 16.9872 172.003 12.0633C172.003 7.13951 167.916 3.07735 162.976 3.07735Z" fill="white"/>
<path d="M11.4059 23.8191C5.12351 23.8191 0 18.5259 0 11.9403C0 5.35467 5.12351 0 11.4059 0C15.7975 0 19.8841 2.70811 21.7139 6.95492L22.2629 8.24742L19.7011 9.41683L19.1522 8.12433C17.7493 4.92384 14.6996 2.89275 11.4059 2.89275C6.70936 2.89275 2.86673 6.95492 2.86673 11.9403C2.86673 16.9257 6.70936 20.9878 11.4059 20.9878C14.6996 20.9878 17.7493 18.9568 19.1522 15.7563L19.7011 14.4638L22.2629 15.6332L21.7139 16.9257C19.8841 21.1109 15.7975 23.8191 11.4059 23.8191Z" fill="white"/>
</g>
<defs>
<clipPath id="clip0">
<rect width="200" height="23.8806" fill="white"/>
</clipPath>
</defs>
</svg>
