<svg width="140" height="125" viewBox="0 0 140 125" fill="none" xmlns="http://www.w3.org/2000/svg">
<circle opacity="0.2" cx="78.5" cy="61.5" r="59.5" fill="#FF7F7A"/>
<path d="M56.2668 52.9011L49.4785 53.89L50.0665 57.9263L56.8548 56.9374L56.2668 52.9011Z" fill="#FF7F7A"/>
<path d="M40.0087 51.8971L24.8042 38.842L1.32031 42.2631L24.4356 62.0349L43.0576 59.3221" fill="#F0EEE9"/>
<path d="M40.0087 51.8971L24.8042 38.842L1.32031 42.2631L24.4356 62.0349L43.0576 59.3221" stroke="#8E2D2A" stroke-width="1.5" stroke-miterlimit="10" stroke-linecap="round" stroke-linejoin="round"/>
<path d="M76.454 56.4244L45.2645 60.968C43.7967 61.1818 42.5222 60.1496 42.3217 58.7736L42.0812 57.1224C41.8674 55.6546 42.8996 54.3801 44.2756 54.1797L75.4651 49.6361C76.9329 49.4223 78.2074 50.4545 78.4079 51.8305L78.6484 53.4817C78.9406 54.8443 77.9218 56.2106 76.454 56.4244Z" fill="white" stroke="#8E2D2A" stroke-width="1.5" stroke-miterlimit="10" stroke-linecap="round" stroke-linejoin="round"/>
<path d="M84.1974 44.6169L40.9906 50.911C40.532 50.9779 40.2185 51.3982 40.2853 51.8569L40.5392 53.5999C40.606 54.0585 41.0264 54.372 41.4851 54.3052L84.6918 48.011C85.1505 47.9442 85.464 47.5238 85.3971 47.0652L85.1432 45.3222C85.0764 44.8635 84.656 44.5501 84.1974 44.6169Z" fill="#F0EEE9" stroke="#8E2D2A" stroke-width="1.5" stroke-miterlimit="10" stroke-linecap="round" stroke-linejoin="round"/>
<path d="M76.914 37.7148L44.8071 42.392C44.3484 42.4588 44.0349 42.8792 44.1017 43.3379L44.6897 47.3742C44.7565 47.8328 45.1769 48.1463 45.6356 48.0795L77.7425 43.4023C78.2012 43.3355 78.5146 42.9151 78.4478 42.4564L77.8598 38.4201C77.793 37.9615 77.3726 37.648 76.914 37.7148Z" fill="white" stroke="#8E2D2A" stroke-width="1.5" stroke-miterlimit="10" stroke-linecap="round" stroke-linejoin="round"/>
<path d="M71.6261 55.4412L14.751 63.7265L23.4372 123.354L80.3123 115.068L71.6261 55.4412Z" fill="#F0EEE9" stroke="#8E2D2A" stroke-width="1.5" stroke-miterlimit="10" stroke-linecap="round" stroke-linejoin="round"/>
<path d="M98.2292 51.5659L70.709 55.575L79.3952 115.202L106.915 111.193L98.2292 51.5659Z" fill="white" stroke="#8E2D2A" stroke-width="1.5" stroke-miterlimit="10" stroke-linecap="round" stroke-linejoin="round"/>
<path d="M117.455 25.3449L90.3935 29.2871L70.8525 55.2729L97.9141 51.3307L117.455 25.3449Z" fill="white" stroke="#8E2D2A" stroke-width="1.5" stroke-miterlimit="10" stroke-linecap="round" stroke-linejoin="round"/>
<path d="M73.6287 39.5988L63.3545 41.0955L63.7287 43.664L74.0029 42.1673L73.6287 39.5988Z" fill="#FF7F7A"/>
<path d="M85.7641 70.5256L81.191 71.1918C80.098 71.351 79.341 72.3662 79.5002 73.4592L80.3802 79.5C80.5394 80.593 81.5546 81.35 82.6476 81.1908L87.2207 80.5246C88.3137 80.3654 89.0707 79.3502 88.9115 78.2572L88.0315 72.2164C87.8723 71.1234 86.8571 70.3664 85.7641 70.5256Z" fill="#DC514C"/>
<path d="M41.4722 106.675L27.0836 108.771C25.9906 108.93 25.2336 109.945 25.3928 111.038L26.2862 117.171C26.4454 118.264 27.4605 119.021 28.5536 118.862L42.9422 116.766C44.0352 116.606 44.7922 115.591 44.633 114.498L43.7396 108.366C43.5804 107.273 42.5652 106.516 41.4722 106.675Z" fill="#DC514C"/>
<path d="M81.3276 79.452L79.8832 80.5923C79.0163 81.2767 78.8683 82.5343 79.5527 83.4012L81.8992 86.3736C82.5836 87.2405 83.8412 87.3885 84.7082 86.7041L86.1525 85.5638C87.0195 84.8794 87.1675 83.6218 86.4831 82.7549L84.1366 79.7825C83.4522 78.9156 82.1946 78.7676 81.3276 79.452Z" fill="#FF7F7A"/>
<path d="M52.3828 70.6104L64.3082 68.8731" stroke="#8E2D2A" stroke-width="1.5" stroke-miterlimit="10" stroke-linecap="round" stroke-linejoin="round"/>
<path d="M52.958 74.5549L64.8834 72.8177" stroke="#8E2D2A" stroke-width="1.5" stroke-miterlimit="10" stroke-linecap="round" stroke-linejoin="round"/>
<path d="M77.0913 21.6207L41.9014 15.6272L40.7162 22.586L75.9061 28.5795L77.0913 21.6207Z" fill="#F0EEE9" stroke="#8E2D2A" stroke-width="1.5" stroke-miterlimit="10" stroke-linecap="round" stroke-linejoin="round"/>
<path d="M40.8295 22.5934L34 15.1901L35.2052 8.24585L42.0347 15.6492L40.8295 22.5934Z" fill="#F0EEE9" stroke="#8E2D2A" stroke-width="1.5" stroke-miterlimit="10" stroke-linecap="round" stroke-linejoin="round"/>
<path d="M77.1001 21.6179L41.9198 15.5919L35.2051 8.24591L70.328 14.2145L77.1001 21.6179Z" fill="white" stroke="#8E2D2A" stroke-width="1.5" stroke-miterlimit="10" stroke-linecap="round" stroke-linejoin="round"/>
<path d="M59.8807 18.6909L53.166 11.2875" stroke="#8E2D2A" stroke-width="1.5" stroke-miterlimit="10" stroke-linecap="round" stroke-linejoin="round"/>
</svg>
