<svg width="24" height="23" viewBox="0 0 24 23" fill="none" xmlns="http://www.w3.org/2000/svg">
<path d="M17.7303 8.13245C17.7303 6.6949 17.1384 5.31623 16.0847 4.29972C15.0309 3.28322 13.6018 2.71216 12.1116 2.71216C10.6215 2.71216 9.19233 3.28322 8.13862 4.29972C7.08491 5.31623 6.49294 6.6949 6.49294 8.13245C6.49294 14.4561 3.68359 16.2629 3.68359 16.2629H20.5397C20.5397 16.2629 17.7303 14.4561 17.7303 8.13245Z" fill="#004B48" stroke-width="1.5" stroke-linecap="round" stroke-linejoin="round"/>
<path d="M13.7323 19.8764C13.5677 20.1502 13.3314 20.3775 13.047 20.5354C12.7627 20.6934 12.4404 20.7766 12.1122 20.7766C11.7841 20.7766 11.4618 20.6934 11.1775 20.5354C10.8931 20.3775 10.6568 20.1502 10.4922 19.8764" stroke="#004B48" stroke-width="1.5" stroke-linecap="round" stroke-linejoin="round"/>
</svg>
