<svg width="17" height="17" viewBox="0 0 17 17" fill="none" xmlns="http://www.w3.org/2000/svg">
<path d="M16.3281 16.078C15.3438 16.0546 14.3828 16.0546 13.3984 16.078C13.1875 16.078 13.1406 16.0311 13.1406 15.8202C13.1406 14.0858 13.1406 12.328 13.1406 10.5936C13.1406 10.1952 13.1172 9.79674 13 9.42174C12.6484 8.20299 11.2422 7.75768 10.2344 8.57799C9.69531 8.99987 9.48438 9.5858 9.48438 10.2889C9.48438 11.9296 9.48438 13.5702 9.48438 15.2108C9.48438 15.4217 9.46094 15.6327 9.48438 15.8671C9.50781 16.0546 9.41406 16.1014 9.25 16.078C8.24219 16.078 7.25781 16.078 6.25 16.078C6.0625 16.078 6.01562 16.0311 6.01562 15.8436C6.03906 14.3671 6.03906 12.8905 6.03906 11.3905C6.03906 9.56237 6.03906 7.73424 6.01562 5.92955C6.01562 5.71862 6.0625 5.67174 6.25 5.67174C7.25781 5.67174 8.24219 5.67174 9.25 5.67174C9.4375 5.67174 9.48438 5.71862 9.48438 5.90612C9.48438 6.28112 9.48438 6.65612 9.48438 7.10143C9.55469 7.03112 9.57813 7.00768 9.60156 6.98424C10.5156 5.6483 11.8047 5.2733 13.3281 5.50768C15.0859 5.78893 16.2109 7.00768 16.4922 8.88268C16.5625 9.32799 16.5859 9.7733 16.5859 10.2186C16.5859 12.0936 16.5859 13.9452 16.5859 15.8202C16.5859 16.0077 16.5391 16.078 16.3281 16.078Z" fill="white"/>
<path d="M4.14063 10.875C4.14063 12.5156 4.14063 14.1562 4.14063 15.7969C4.14063 16.0078 4.09375 16.0781 3.88281 16.0781C2.89844 16.0547 1.91406 16.0781 0.929688 16.0781C0.742188 16.0781 0.695312 16.0312 0.695312 15.8437C0.695312 12.5391 0.695312 9.21094 0.695312 5.90625C0.695312 5.74219 0.742188 5.67188 0.929688 5.67188C1.9375 5.67188 2.94531 5.67188 3.95313 5.67188C4.16406 5.67188 4.1875 5.74219 4.1875 5.92969C4.14063 7.57031 4.14063 9.21094 4.14063 10.875Z" fill="white"/>
<path d="M4.30514 2.95308C4.07077 3.89058 3.10983 4.42964 2.00827 4.24214C0.836392 4.05464 0.180142 2.9062 0.602017 1.7812C0.883267 1.07808 1.56295 0.656202 2.43014 0.679639C3.74264 0.656202 4.60983 1.71089 4.30514 2.95308Z" fill="white"/>
</svg>
