<svg width="13" height="16" viewBox="0 0 13 16" fill="none" xmlns="http://www.w3.org/2000/svg">
<path d="M11.375 6.91666C11.375 10.7083 6.5 13.9583 6.5 13.9583C6.5 13.9583 1.625 10.7083 1.625 6.91666C1.625 5.62373 2.13861 4.38376 3.05285 3.46952C3.96709 2.55528 5.20707 2.04166 6.5 2.04166C7.79293 2.04166 9.03291 2.55528 9.94715 3.46952C10.8614 4.38376 11.375 5.62373 11.375 6.91666Z" stroke="#004B48" stroke-width="1.5" stroke-linecap="round" stroke-linejoin="round"/>
<path d="M6.5 8.54167C7.39746 8.54167 8.125 7.81413 8.125 6.91666C8.125 6.0192 7.39746 5.29166 6.5 5.29166C5.60254 5.29166 4.875 6.0192 4.875 6.91666C4.875 7.81413 5.60254 8.54167 6.5 8.54167Z" stroke="#004B48" stroke-width="1.5" stroke-linecap="round" stroke-linejoin="round"/>
</svg>
