<svg width="140" height="125" viewBox="0 0 140 125" fill="none" xmlns="http://www.w3.org/2000/svg">
<circle opacity="0.2" cx="47" cy="46" r="46" fill="#00908A"/>
<path d="M71.7242 33L129.827 47.0382C130.9 47.2975 131.56 48.3778 131.301 49.4513L115.515 114.878C115.256 115.952 114.175 116.612 113.101 116.353L56.9329 102.782C55.8636 102.523 55.2037 101.45 55.4558 100.379L70.5 36.5" fill="white"/>
<path d="M71.7242 33L129.827 47.0382C130.9 47.2975 131.56 48.3778 131.301 49.4513L115.515 114.878C115.256 115.952 114.175 116.612 113.101 116.353L56.9329 102.782C55.8636 102.523 55.2037 101.45 55.4558 100.379L70.5 36.5" stroke="#004B48" stroke-width="2.01496" stroke-miterlimit="10" stroke-linecap="round" stroke-linejoin="round"/>
<path d="M121.745 99.337L58.3519 75.3885C57.1487 74.934 56.6811 73.4783 57.3946 72.4081L72.1062 50.3407C72.6279 49.5581 73.6245 49.2448 74.5002 49.5881L133.539 72.7314C134.605 73.1493 135.104 74.3753 134.631 75.4185L124.274 98.2911C123.839 99.2521 122.732 99.7099 121.745 99.337Z" fill="#00908A"/>
<path d="M100.543 67.8362L116.058 71.4631" stroke="#004B48" stroke-width="2.01496" stroke-miterlimit="10" stroke-linecap="round" stroke-linejoin="round"/>
<path d="M75.3555 71.2844L113.438 79.5458" stroke="#004B48" stroke-width="2.01496" stroke-miterlimit="10" stroke-linecap="round" stroke-linejoin="round"/>
<path d="M92 80L112 84" stroke="#004B48" stroke-width="2.01496" stroke-miterlimit="10" stroke-linecap="round" stroke-linejoin="round"/>
<path d="M77.2806 42.5265L52.5855 48.5276C51.5122 48.7884 50.4306 48.1298 50.1698 47.0565L48.321 39.4486L46.4723 31.8407C46.2114 30.7673 46.8701 29.6858 47.9434 29.4249L72.6385 23.4239L84.9345 30.5512L77.2806 42.5265Z" fill="#00908A"/>
<path d="M79.2806 38.5265L54.5855 44.5276C53.5122 44.7884 52.4306 44.1298 52.1698 43.0565L50.321 35.4486L48.4723 27.8407C48.2114 26.7673 48.8701 25.6858 49.9434 25.4249L74.6385 19.4239L86.9345 26.5512L79.2806 38.5265Z" fill="white" stroke="#004B48" stroke-width="1.5"/>
<path d="M63.998 26.7631L66.4158 36.7124" stroke="#004B48" stroke-width="1.5" stroke-linecap="round" stroke-linejoin="round"/>
<path d="M67.0361 27.7102L63.0564 28.6773C62.5639 28.797 62.1373 29.1005 61.8706 29.521C61.604 29.9415 61.519 30.4446 61.6344 30.9195C61.7498 31.3945 62.0562 31.8025 62.4861 32.0537C62.916 32.3049 63.4343 32.3788 63.9268 32.2591L66.58 31.6144C67.0725 31.4947 67.5908 31.5686 68.0207 31.8198C68.4506 32.071 68.7569 32.479 68.8724 32.9539C68.9878 33.4289 68.9028 33.932 68.6361 34.3525C68.3695 34.7729 67.9429 35.0764 67.4504 35.1961L62.94 36.2922" stroke="#004B48" stroke-width="1.5" stroke-linecap="round" stroke-linejoin="round"/>
<path d="M83.3173 20.8224C84.2944 20.1343 85.486 19.7302 86.7719 19.7302C90.0893 19.7302 92.7787 22.4196 92.7787 25.737C92.7787 29.0545 90.0893 31.7438 86.7719 31.7438C84.3299 31.7438 82.2282 30.2866 81.2891 28.1943" stroke="#004B48" stroke-width="1.5" stroke-linecap="round"/>
<path d="M83.3388 20.8224C84.3159 20.1343 85.5074 19.7302 86.7933 19.7302C90.1108 19.7302 92.8001 22.4196 92.8001 25.737C92.8001 29.0545 90.1108 31.7438 86.7933 31.7438C84.3514 31.7438 82.2497 30.2866 81.3105 28.1943" stroke="#004B48" stroke-width="1.5" stroke-linecap="round"/>
<path d="M55.7813 50.321L4.86531 64.2686C2.202 64.9982 0.634401 67.7486 1.36397 70.4119L9.75972 101.061C10.4893 103.724 13.2398 105.292 15.9031 104.562L66.8191 90.6144C69.4824 89.8849 71.05 87.1344 70.3204 84.4711L61.9247 53.8223C61.1951 51.159 58.4447 49.5914 55.7813 50.321Z" fill="#F4F6F7" stroke="#004B48" stroke-width="1.5" stroke-miterlimit="10" stroke-linecap="round" stroke-linejoin="round"/>
<path d="M17.2269 73.5065L29.2165 78.8815L34.5391 72.9209L56.1843 77.759" stroke="#00908A" stroke-width="1.5" stroke-miterlimit="10" stroke-linecap="round" stroke-linejoin="round"/>
<path d="M52.77 79.9054L57.6904 78.195L55.2656 74.3388" stroke="#00908A" stroke-width="1.5" stroke-miterlimit="10" stroke-linecap="round" stroke-linejoin="round"/>
<path d="M27.6015 95.9332L23.196 97.221C22.1358 97.5309 21.0251 96.9226 20.7152 95.8624L20.5595 95.3295C20.2496 94.2693 20.8578 93.1586 21.918 92.8487L26.3235 91.561C27.3837 91.2511 28.4944 91.8593 28.8043 92.9195L28.9601 93.4524C29.27 94.5126 28.6617 95.6233 27.6015 95.9332Z" fill="#00908A"/>
</svg>
