<svg width="71" height="36" viewBox="0 0 71 36" fill="none" xmlns="http://www.w3.org/2000/svg">
<mask id="path-1-inside-1" fill="white">
<rect x="7.81641" y="7.15937" width="62.3752" height="28.8402" rx="2.19028" transform="rotate(-0.103843 7.81641 7.15937)"/>
</mask>
<rect x="7.81641" y="7.15937" width="62.3752" height="28.8402" rx="2.19028" transform="rotate(-0.103843 7.81641 7.15937)" fill="white" stroke="#004B48" stroke-width="5.84074" mask="url(#path-1-inside-1)"/>
<path d="M10.7344 12.0835C10.7322 10.8738 11.7111 9.89141 12.9207 9.88922L65.0572 9.79472L65.0907 28.2826C65.0929 29.4922 64.114 30.4746 62.9044 30.4768L12.9582 30.5674C11.7486 30.5696 10.7662 29.5907 10.764 28.3811L10.7344 12.0835Z" fill="#C1CCCD"/>
<mask id="path-3-inside-2" fill="white">
<rect x="0.757812" y="0.113049" width="62.3752" height="28.8402" rx="2.19028" transform="rotate(-0.103843 0.757812 0.113049)"/>
</mask>
<rect x="0.757812" y="0.113049" width="62.3752" height="28.8402" rx="2.19028" transform="rotate(-0.103843 0.757812 0.113049)" fill="white" stroke="#004B48" stroke-width="5.84074" mask="url(#path-3-inside-2)"/>
<ellipse rx="10.5299" ry="11.8837" transform="matrix(0.999994 -0.00339847 0.000406996 1 35.7573 15.7627)" fill="#C1CCCD"/>
<path d="M42.1371 15.0939C42.1398 21.777 37.3777 26.9013 31.8603 26.9201C26.343 26.9388 21.5767 21.8469 21.574 15.1638C21.5712 8.48071 26.3334 3.35643 31.8507 3.33768C37.3681 3.31893 42.1344 8.41083 42.1371 15.0939Z" stroke="#004B48" stroke-width="2.92037"/>
<g clip-path="url(#clip0)">
<path d="M32.3018 7.99203L32.324 20.2882" stroke="#004B48" stroke-width="2.19028" stroke-linecap="round" stroke-linejoin="round"/>
<path d="M35.0993 10.2226L30.9074 10.2302C30.3886 10.2312 29.8914 10.4382 29.5252 10.8057C29.159 11.1732 28.9538 11.6712 28.9547 12.19C28.9557 12.7088 29.1627 13.206 29.5302 13.5722C29.8977 13.9384 30.3957 14.1436 30.9145 14.1426L33.7091 14.1376C34.2279 14.1366 34.7258 14.3418 35.0933 14.708C35.4609 15.0742 35.6679 15.5714 35.6688 16.0902C35.6698 16.6091 35.4646 17.107 35.0984 17.4745C34.7322 17.8421 34.235 18.0491 33.7161 18.05L28.9654 18.0586" stroke="#004B48" stroke-width="2.19028" stroke-linecap="round" stroke-linejoin="round"/>
</g>
<path d="M10.7727 28.6572C10.8292 23.2864 6.52116 18.8867 1.15039 18.8302" stroke="#004B48" stroke-width="2.92037"/>
<path d="M11.0516 0.824586C10.9951 6.19535 6.59538 10.5034 1.22461 10.4469" stroke="#004B48" stroke-width="2.92037"/>
<path d="M51.4574 28.9097C51.4574 23.5387 55.8116 19.1846 61.1826 19.1846" stroke="#004B48" stroke-width="2.92037"/>
<path d="M51.4574 1.07562C51.4574 6.44668 55.8116 10.8008 61.1826 10.8008" stroke="#004B48" stroke-width="2.92037"/>
<defs>
<clipPath id="clip0">
<rect width="13.414" height="13.414" fill="white" transform="translate(25.5918 7.44527) rotate(-0.103843)"/>
</clipPath>
</defs>
</svg>
