<svg width="150" height="18" viewBox="0 0 150 18" fill="none" xmlns="http://www.w3.org/2000/svg">
<g clip-path="url(#clip0)">
<path d="M66.6055 7.52454H58.1426V9.6941H66.6055V7.52454Z" fill="white"/>
<path d="M54.3919 17.6798H52.2876L40.8055 3.46223V17.6798H38.7012V0.415611H41.0799L52.2876 14.2177V0.415611H54.3919V17.6798Z" fill="white"/>
<path d="M150 17.6798H147.896L136.414 3.46223V17.6798H134.264V0.415611H136.688L147.85 14.2177V0.415611H150V17.6798Z" fill="white"/>
<path d="M69.8087 17.6798H57.5488V0.415611H69.8087V2.58518H59.6989V15.5102H69.8087V17.6798Z" fill="white"/>
<path d="M105.352 0.415611H90.9883V2.58518H105.352V0.415611Z" fill="white"/>
<path d="M98.9469 0.600014H96.7969V17.6334H98.9469V0.600014Z" fill="white"/>
<path d="M110.156 0.415611H108.006V17.6798H110.156V0.415611Z" fill="white"/>
<path d="M73.4668 17.726L70.5391 17.6336L79.2765 8.8169L70.9508 0.415611H73.97L81.5638 8.07833C81.7468 8.26297 81.884 8.53994 81.884 8.8169C81.884 9.09387 81.7925 9.37084 81.5638 9.55548L73.4668 17.726Z" fill="white"/>
<path d="M83.3495 6.97047L81.8398 5.44715L86.8719 0.415611H89.8911L83.3495 6.97047Z" fill="white"/>
<path d="M87.2836 17.6799L81.8398 12.1868L83.3495 10.6635L90.3028 17.6799H87.2836Z" fill="white"/>
<path d="M27.3091 17.9102C22.4143 17.9102 18.3887 13.9404 18.3887 9.00115C18.4344 4.10809 22.4143 0.138245 27.3091 0.138245C32.2039 0.138245 36.2295 4.10809 36.2295 9.04731C36.2295 13.9404 32.2496 17.9102 27.3091 17.9102ZM27.3091 2.30781C23.5579 2.30781 20.5387 5.35443 20.5387 9.04731C20.5387 12.7402 23.5579 15.7868 27.3091 15.7868C31.0602 15.7868 34.0794 12.7863 34.0794 9.04731C34.0794 5.30827 31.0602 2.30781 27.3091 2.30781Z" fill="white"/>
<path d="M122.233 17.9104C117.338 17.9104 113.312 13.9406 113.312 9.00137C113.312 4.10831 117.292 0.092308 122.233 0.092308C127.173 0.092308 131.153 4.06215 131.153 9.00137C131.108 13.9406 127.128 17.9104 122.233 17.9104ZM122.233 2.30803C118.482 2.30803 115.463 5.35466 115.463 9.04753C115.463 12.7404 118.482 15.787 122.233 15.787C125.984 15.787 129.003 12.7404 129.003 9.04753C129.003 5.35466 125.938 2.30803 122.233 2.30803Z" fill="white"/>
<path d="M8.55444 17.8643C3.84264 17.8643 0 13.8944 0 8.95522C0 4.016 3.84264 0 8.55444 0C11.8481 0 14.9131 2.03108 16.2855 5.21619L16.6972 6.18557L14.7758 7.06262L14.3641 6.09324C13.312 3.69288 11.0247 2.16956 8.55444 2.16956C5.03202 2.16956 2.15005 5.21619 2.15005 8.95522C2.15005 12.6943 5.03202 15.7409 8.55444 15.7409C11.0247 15.7409 13.312 14.2176 14.3641 11.8172L14.7758 10.8478L16.6972 11.7249L16.2855 12.6943C14.9131 15.8332 11.8481 17.8643 8.55444 17.8643Z" fill="white"/>
</g>
<defs>
<clipPath id="clip0">
<rect width="150" height="17.9104" fill="white"/>
</clipPath>
</defs>
</svg>
