<svg width="14" height="17" viewBox="0 0 14 17" fill="none" xmlns="http://www.w3.org/2000/svg">
<g clip-path="url(#clip0)">
<path d="M1 3.99609H2.33333H13" stroke="#B5BFC0" stroke-width="1.5" stroke-linecap="round" stroke-linejoin="round"/>
<path d="M4.33301 3.99613V2.6628C4.33301 2.30918 4.47348 1.97004 4.72353 1.71999C4.97358 1.46994 5.31272 1.32947 5.66634 1.32947H8.33301C8.68663 1.32947 9.02577 1.46994 9.27582 1.71999C9.52587 1.97004 9.66634 2.30918 9.66634 2.6628V3.99613M11.6663 3.99613V13.3295C11.6663 13.6831 11.5259 14.0222 11.2758 14.2723C11.0258 14.5223 10.6866 14.6628 10.333 14.6628H3.66634C3.31272 14.6628 2.97358 14.5223 2.72353 14.2723C2.47348 14.0222 2.33301 13.6831 2.33301 13.3295V3.99613H11.6663Z" stroke="#B5BFC0" stroke-width="1.5" stroke-linecap="round" stroke-linejoin="round"/>
<path d="M5.66699 7.32947V11.3295" stroke="#B5BFC0" stroke-width="1.5" stroke-linecap="round" stroke-linejoin="round"/>
<path d="M8.33301 7.32947V11.3295" stroke="#B5BFC0" stroke-width="1.5" stroke-linecap="round" stroke-linejoin="round"/>
</g>
<defs>
<clipPath id="clip0">
<rect y="0.329468" width="14" height="16" rx="4" fill="white"/>
</clipPath>
</defs>
</svg>
