<svg width="20" height="20" viewBox="0 0 20 20" fill="none" xmlns="http://www.w3.org/2000/svg">
<path d="M9.99986 0.690643C4.92706 0.690643 0.799864 4.81784 0.799864 9.89064C0.799864 11.4746 1.20906 13.0322 1.98506 14.4066L0.814664 18.5826C0.776264 18.7198 0.813464 18.867 0.912664 18.969C0.989064 19.0478 1.09306 19.0906 1.19986 19.0906C1.23186 19.0906 1.26426 19.0866 1.29586 19.079L5.65426 17.9994C6.98506 18.7138 8.48386 19.0906 9.99986 19.0906C15.0727 19.0906 19.1999 14.9634 19.1999 9.89064C19.1999 4.81784 15.0727 0.690643 9.99986 0.690643ZM14.6279 13.137C14.4311 13.6818 13.4871 14.179 13.0335 14.2458C12.6263 14.3054 12.1111 14.331 11.5455 14.1534C11.2027 14.0454 10.7627 13.9022 10.1991 13.6618C7.82986 12.6514 6.28266 10.2958 6.16426 10.1402C6.04626 9.98464 5.19986 8.87584 5.19986 7.72824C5.19986 6.58064 5.80986 6.01624 6.02666 5.78264C6.24346 5.54904 6.49906 5.49064 6.65666 5.49064C6.81426 5.49064 6.97146 5.49264 7.10946 5.49904C7.25466 5.50624 7.44946 5.44424 7.64106 5.89944C7.83786 6.36664 8.31026 7.51424 8.36866 7.63144C8.42786 7.74824 8.46706 7.88464 8.38866 8.04024C8.31026 8.19584 8.27106 8.29304 8.15266 8.42944C8.03426 8.56584 7.90466 8.73344 7.79826 8.83824C7.67986 8.95464 7.55706 9.08064 7.69466 9.31424C7.83226 9.54784 8.30626 10.3114 9.00866 10.9298C9.91066 11.7242 10.6719 11.9706 10.9079 12.0874C11.1439 12.2042 11.2819 12.1846 11.4195 12.029C11.5571 11.873 12.0099 11.3478 12.1671 11.1146C12.3243 10.8814 12.4819 10.9198 12.6987 10.9978C12.9155 11.0754 14.0767 11.6394 14.3127 11.7562C14.5487 11.873 14.7063 11.9314 14.7655 12.0286C14.8247 12.1254 14.8247 12.5926 14.6279 13.137Z" fill="white"/>
</svg>
