<svg width="273" height="289" viewBox="0 0 273 289" fill="none" xmlns="http://www.w3.org/2000/svg">
<path opacity="0.2" d="M220.809 215.161C168.019 249.898 96.867 235.25 62.2299 182.308C27.5928 129.366 42.1988 58.0094 94.9891 23.2728C147.779 -11.4639 221.435 -12.5102 253.569 56.1261C288.414 109.068 273.6 180.216 220.809 215.161Z" fill="#00908A"/>
<path d="M94.8415 152.164L105.341 177.85L112.479 195.282L124.91 225.444L53.8571 255.272L23.8609 182.07L94.8415 152.164Z" fill="#F4F6F7" stroke="#004B48" stroke-width="1.5" stroke-miterlimit="10" stroke-linecap="round" stroke-linejoin="round"/>
<path d="M87.844 166.987L90.1772 172.694L91.8318 176.554L94.5009 183.262L78.6769 189.906L72.0199 173.631L87.844 166.987Z" stroke="#004B48" stroke-width="1.5" stroke-miterlimit="10" stroke-linecap="round" stroke-linejoin="round"/>
<path d="M35.1775 162.423L35.3426 162.125L78.9535 143.799L106.098 132.303L94.4403 152.117L82.6081 157.124L23.6845 181.938L35.1775 162.423Z" stroke="#004B48" stroke-width="1.5" stroke-miterlimit="10" stroke-linecap="round" stroke-linejoin="round"/>
<path d="M112.297 195.535L124.748 225.737L136.462 205.841L106.345 132.464" stroke="#004B48" stroke-width="1.5" stroke-miterlimit="10" stroke-linecap="round" stroke-linejoin="round"/>
<path d="M68.2063 148.226L56.5524 168.032" stroke="#004B48" stroke-width="1.5" stroke-miterlimit="10" stroke-linecap="round" stroke-linejoin="round"/>
<path d="M78.7334 214.487L55.3767 224.36" stroke="#004B48" stroke-width="1.5" stroke-miterlimit="10" stroke-linecap="round" stroke-linejoin="round"/>
<path d="M76.2267 208.304L52.9488 218.104" stroke="#004B48" stroke-width="1.5" stroke-miterlimit="10" stroke-linecap="round" stroke-linejoin="round"/>
<path d="M94.5313 183.271L71.9922 173.619" stroke="#004B48" stroke-width="1.5" stroke-miterlimit="10" stroke-linecap="round" stroke-linejoin="round"/>
</svg>
