<svg width="631" height="552" viewBox="0 0 631 552" fill="none" xmlns="http://www.w3.org/2000/svg">
<g clip-path="url(#clip0)">
<rect opacity="0.2" width="59.175" height="59.175" rx="5" transform="matrix(0.707641 0.706572 -0.707641 0.706572 236.474 340.632)" fill="#FF7F7A"/>
<rect opacity="0.2" width="18.4248" height="18.4248" rx="3" transform="matrix(0.707641 0.706573 -0.707641 0.706573 291.053 360.416)" fill="#DC514C"/>
<path d="M138.571 485.784H335.428" stroke="#DC514C" stroke-width="1.5" stroke-miterlimit="10" stroke-linecap="round" stroke-linejoin="round"/>
<path d="M151.595 486.238V494.1" stroke="#DC514C" stroke-width="1.5" stroke-miterlimit="10" stroke-linecap="round" stroke-linejoin="round"/>
<path d="M193.388 486.238V494.1" stroke="#DC514C" stroke-width="1.5" stroke-miterlimit="10" stroke-linecap="round" stroke-linejoin="round"/>
<path d="M235.183 486.238V494.1" stroke="#DC514C" stroke-width="1.5" stroke-miterlimit="10" stroke-linecap="round" stroke-linejoin="round"/>
<path d="M276.976 486.238V494.1" stroke="#DC514C" stroke-width="1.5" stroke-miterlimit="10" stroke-linecap="round" stroke-linejoin="round"/>
<path d="M318.771 486.238V494.1" stroke="#DC514C" stroke-width="1.5" stroke-miterlimit="10" stroke-linecap="round" stroke-linejoin="round"/>
<path d="M202.034 374.04H167.236C165.599 374.04 164.371 372.711 164.371 371.178V369.339C164.371 367.704 165.701 366.478 167.236 366.478H202.034C203.672 366.478 204.9 367.806 204.9 369.339V371.178C205.002 372.711 203.672 374.04 202.034 374.04Z" fill="#F0EEE9" stroke="#8E2D2A" stroke-width="1.5" stroke-miterlimit="10" stroke-linecap="round" stroke-linejoin="round"/>
<path d="M173.732 370.735V367.739H179.806V370.735H173.732Z" fill="white" stroke="#8E2D2A" stroke-width="1.5"/>
<path d="M221.66 371.894H158V479.401H221.66V371.894Z" fill="white" stroke="#8E2D2A" stroke-width="1.5" stroke-miterlimit="10" stroke-linecap="round" stroke-linejoin="round"/>
<path d="M251.136 371.894H220.944V479.401H251.136V371.894Z" fill="white" stroke="#8E2D2A" stroke-width="1.5" stroke-miterlimit="10" stroke-linecap="round" stroke-linejoin="round"/>
<path d="M177.008 453.356H167.489V464.495H177.008V453.356Z" fill="#8E2D2A" stroke="#8E2D2A" stroke-width="1.5" stroke-miterlimit="10" stroke-linecap="round" stroke-linejoin="round"/>
<path d="M170.447 461.287L164.863 464.506L169.162 471.94L174.746 468.721L170.447 461.287Z" fill="#FF7F7A"/>
<path d="M198.319 385.69H211.624" stroke="#8E2D2A" stroke-width="1.5" stroke-miterlimit="10" stroke-linecap="round" stroke-linejoin="round"/>
<path d="M198.319 390.084H211.624" stroke="#8E2D2A" stroke-width="1.5" stroke-miterlimit="10" stroke-linecap="round" stroke-linejoin="round"/>
<g filter="url(#filter0_d)">
<circle cx="266.5" cy="479.5" r="52.5" fill="white"/>
</g>
</g>
<circle opacity="0.2" cx="557.5" cy="229.5" r="123.5" fill="#8E2D2A"/>
<g filter="url(#filter1_d)">
<rect x="295" y="252" width="360" height="280" rx="10" fill="white"/>
</g>
<path d="M597.467 151.903L526.885 142.896C525.79 142.756 524.757 143.526 524.578 144.616L514.323 207.13C514.145 208.22 514.888 209.216 515.983 209.356L586.564 218.363C587.66 218.503 588.693 217.733 588.871 216.644L599.126 154.129C599.305 153.04 598.562 152.043 597.467 151.903Z" fill="#F0EEE9" stroke="#8E2D2A" stroke-width="1.5" stroke-miterlimit="10" stroke-linecap="round" stroke-linejoin="round"/>
<path d="M571.133 181.622L563.895 180.698L562.659 188.235L569.897 189.158L571.133 181.622Z" fill="#DC514C"/>
<path d="M589.455 179.876L564.955 176.723C561.919 176.332 559.88 173.432 560.398 170.245L560.649 168.706C561.167 165.518 564.047 163.251 567.083 163.642L591.583 166.795L589.455 179.876Z" fill="#8E2D2A"/>
<path d="M553.345 189.623L526.741 186.194L528.879 173.032L555.483 176.461C558.52 176.852 560.561 179.758 560.042 182.952L559.792 184.494C559.264 187.743 556.382 190.014 553.345 189.623Z" fill="#8E2D2A"/>
<path d="M540.775 162.414L533.537 161.491L532.301 169.027L539.539 169.951L540.775 162.414Z" fill="white" stroke="#8E2D2A" stroke-width="1.5" stroke-miterlimit="10" stroke-linecap="round" stroke-linejoin="round"/>
<path d="M561.794 158.286L535.31 154.695C534.625 154.602 534.143 153.882 534.261 153.123C534.378 152.365 535.057 151.802 535.743 151.895L562.227 155.486C562.912 155.579 563.394 156.299 563.276 157.058C563.159 157.816 562.48 158.379 561.794 158.286Z" fill="#8E2D2A"/>
<path d="M557.002 164.759L549.764 163.835L548.528 171.371L555.766 172.295L557.002 164.759Z" fill="white" stroke="#8E2D2A" stroke-width="1.5" stroke-miterlimit="10" stroke-linecap="round" stroke-linejoin="round"/>
<path d="M573.236 167.103L565.999 166.18L564.762 173.716L572 174.64L573.236 167.103Z" fill="#F0EEE9"/>
<path d="M588.201 169.265L580.963 168.341L579.726 175.877L586.964 176.801L588.201 169.265Z" fill="#F0EEE9"/>
<path d="M538.671 176.933L531.434 176.01L530.197 183.546L537.435 184.469L538.671 176.933Z" fill="#F0EEE9"/>
<path d="M554.899 179.277L547.661 178.354L546.424 185.89L553.662 186.813L554.899 179.277Z" fill="#F0EEE9"/>
<path d="M533.537 161.491L539.591 169.958" stroke="#8E2D2A" stroke-width="1.5" stroke-miterlimit="10" stroke-linecap="round" stroke-linejoin="round"/>
<path d="M549.764 163.835L555.766 172.295" stroke="#8E2D2A" stroke-width="1.5" stroke-miterlimit="10" stroke-linecap="round" stroke-linejoin="round"/>
<path d="M531.027 140.023L530.033 146.886" stroke="#8E2D2A" stroke-width="1.5" stroke-miterlimit="10" stroke-linecap="round" stroke-linejoin="round"/>
<path d="M539.856 141.299L538.862 148.162" stroke="#8E2D2A" stroke-width="1.5" stroke-miterlimit="10" stroke-linecap="round" stroke-linejoin="round"/>
<path d="M548.689 142.574L547.695 149.437" stroke="#8E2D2A" stroke-width="1.5" stroke-miterlimit="10" stroke-linecap="round" stroke-linejoin="round"/>
<path d="M557.519 143.85L556.525 150.712" stroke="#8E2D2A" stroke-width="1.5" stroke-miterlimit="10" stroke-linecap="round" stroke-linejoin="round"/>
<path d="M566.348 145.125L565.354 151.988" stroke="#8E2D2A" stroke-width="1.5" stroke-miterlimit="10" stroke-linecap="round" stroke-linejoin="round"/>
<path d="M584.007 147.676L583.013 154.539" stroke="#8E2D2A" stroke-width="1.5" stroke-miterlimit="10" stroke-linecap="round" stroke-linejoin="round"/>
<path d="M575.178 146.401L574.183 153.263" stroke="#8E2D2A" stroke-width="1.5" stroke-miterlimit="10" stroke-linecap="round" stroke-linejoin="round"/>
<path d="M592.785 148.944L591.791 155.807" stroke="#8E2D2A" stroke-width="1.5" stroke-miterlimit="10" stroke-linecap="round" stroke-linejoin="round"/>
<path d="M146.634 191H6.08594C3.32451 191 1.08594 193.239 1.08594 196V292.448C1.08594 295.21 3.32451 297.448 6.08594 297.448H146.634C149.396 297.448 151.634 295.21 151.634 292.448V196C151.634 193.239 149.396 191 146.634 191Z" fill="#F0EEE9" stroke="#8E2D2A" stroke-width="1.5" stroke-miterlimit="10" stroke-linecap="round" stroke-linejoin="round"/>
<path d="M139 206.448H15C12.2386 206.448 10 208.687 10 211.448V275.909C10 278.67 12.2386 280.909 15 280.909H139C141.761 280.909 144 278.67 144 275.909V211.448C144 208.687 141.761 206.448 139 206.448Z" fill="white" stroke="#8E2D2A" stroke-width="1.5" stroke-miterlimit="10" stroke-linecap="round" stroke-linejoin="round"/>
<path d="M44 265.448H20V280.448H44V265.448Z" fill="#DC514C"/>
<path d="M72 223.448H48V280.448H72V223.448Z" fill="#FF7F7A"/>
<path d="M100 230.448H76V280.448H100V230.448Z" fill="#DC514C"/>
<path d="M127 247.448H103V280.448H127V247.448Z" fill="#DC514C"/>
<path d="M12.4318 199.188C13.7239 199.188 14.7713 198.141 14.7713 196.849C14.7713 195.557 13.7239 194.509 12.4318 194.509C11.1397 194.509 10.0923 195.557 10.0923 196.849C10.0923 198.141 11.1397 199.188 12.4318 199.188Z" fill="#DC514C"/>
<path d="M20.9718 199.188C22.2639 199.188 23.3114 198.141 23.3114 196.849C23.3114 195.557 22.2639 194.509 20.9718 194.509C19.6798 194.509 18.6323 195.557 18.6323 196.849C18.6323 198.141 19.6798 199.188 20.9718 199.188Z" fill="#DC514C"/>
<path d="M1 286.448H146" stroke="#8E2D2A" stroke-width="1.5" stroke-miterlimit="10" stroke-linecap="round" stroke-linejoin="round"/>
<path d="M124.887 253.816H138.339" stroke="#8E2D2A" stroke-width="1.5" stroke-miterlimit="10" stroke-linecap="round" stroke-linejoin="round"/>
<path d="M124.887 261.771H138.339" stroke="#8E2D2A" stroke-width="1.5" stroke-miterlimit="10" stroke-linecap="round" stroke-linejoin="round"/>
<path d="M124.887 269.725C128.162 269.725 131.437 269.725 134.713 269.725" stroke="#8E2D2A" stroke-width="1.5" stroke-miterlimit="10" stroke-linecap="round" stroke-linejoin="round"/>
<g filter="url(#filter2_d)">
<circle cx="178.5" cy="87.5" r="52.5" fill="white"/>
</g>
<g filter="url(#filter3_d)">
<circle cx="350.5" cy="158.5" r="52.5" fill="white"/>
</g>
<g filter="url(#filter4_d)">
<circle cx="194.5" cy="273.5" r="52.5" fill="white"/>
</g>
<g filter="url(#filter5_d)">
<circle cx="108.5" cy="400.5" r="52.5" fill="white"/>
</g>
<g filter="url(#filter6_d)">
<circle cx="484.5" cy="67.5" r="52.5" fill="white"/>
</g>
<defs>
<filter id="filter0_d" x="184" y="412" width="165" height="165" filterUnits="userSpaceOnUse" color-interpolation-filters="sRGB">
<feFlood flood-opacity="0" result="BackgroundImageFix"/>
<feColorMatrix in="SourceAlpha" type="matrix" values="0 0 0 0 0 0 0 0 0 0 0 0 0 0 0 0 0 0 127 0"/>
<feOffset dy="15"/>
<feGaussianBlur stdDeviation="15"/>
<feColorMatrix type="matrix" values="0 0 0 0 0.00392157 0 0 0 0 0.129412 0 0 0 0 0.12549 0 0 0 0.5 0"/>
<feBlend mode="normal" in2="BackgroundImageFix" result="effect1_dropShadow"/>
<feBlend mode="normal" in="SourceGraphic" in2="effect1_dropShadow" result="shape"/>
</filter>
<filter id="filter1_d" x="279" y="240" width="392" height="312" filterUnits="userSpaceOnUse" color-interpolation-filters="sRGB">
<feFlood flood-opacity="0" result="BackgroundImageFix"/>
<feColorMatrix in="SourceAlpha" type="matrix" values="0 0 0 0 0 0 0 0 0 0 0 0 0 0 0 0 0 0 127 0"/>
<feOffset dy="4"/>
<feGaussianBlur stdDeviation="8"/>
<feColorMatrix type="matrix" values="0 0 0 0 0.00392157 0 0 0 0 0.129412 0 0 0 0 0.12549 0 0 0 0.16 0"/>
<feBlend mode="normal" in2="BackgroundImageFix" result="effect1_dropShadow"/>
<feBlend mode="normal" in="SourceGraphic" in2="effect1_dropShadow" result="shape"/>
</filter>
<filter id="filter2_d" x="96" y="20" width="165" height="165" filterUnits="userSpaceOnUse" color-interpolation-filters="sRGB">
<feFlood flood-opacity="0" result="BackgroundImageFix"/>
<feColorMatrix in="SourceAlpha" type="matrix" values="0 0 0 0 0 0 0 0 0 0 0 0 0 0 0 0 0 0 127 0"/>
<feOffset dy="15"/>
<feGaussianBlur stdDeviation="15"/>
<feColorMatrix type="matrix" values="0 0 0 0 0.00392157 0 0 0 0 0.129412 0 0 0 0 0.12549 0 0 0 0.5 0"/>
<feBlend mode="normal" in2="BackgroundImageFix" result="effect1_dropShadow"/>
<feBlend mode="normal" in="SourceGraphic" in2="effect1_dropShadow" result="shape"/>
</filter>
<filter id="filter3_d" x="268" y="91" width="165" height="165" filterUnits="userSpaceOnUse" color-interpolation-filters="sRGB">
<feFlood flood-opacity="0" result="BackgroundImageFix"/>
<feColorMatrix in="SourceAlpha" type="matrix" values="0 0 0 0 0 0 0 0 0 0 0 0 0 0 0 0 0 0 127 0"/>
<feOffset dy="15"/>
<feGaussianBlur stdDeviation="15"/>
<feColorMatrix type="matrix" values="0 0 0 0 0.00392157 0 0 0 0 0.129412 0 0 0 0 0.12549 0 0 0 0.5 0"/>
<feBlend mode="normal" in2="BackgroundImageFix" result="effect1_dropShadow"/>
<feBlend mode="normal" in="SourceGraphic" in2="effect1_dropShadow" result="shape"/>
</filter>
<filter id="filter4_d" x="112" y="206" width="165" height="165" filterUnits="userSpaceOnUse" color-interpolation-filters="sRGB">
<feFlood flood-opacity="0" result="BackgroundImageFix"/>
<feColorMatrix in="SourceAlpha" type="matrix" values="0 0 0 0 0 0 0 0 0 0 0 0 0 0 0 0 0 0 127 0"/>
<feOffset dy="15"/>
<feGaussianBlur stdDeviation="15"/>
<feColorMatrix type="matrix" values="0 0 0 0 0.00392157 0 0 0 0 0.129412 0 0 0 0 0.12549 0 0 0 0.5 0"/>
<feBlend mode="normal" in2="BackgroundImageFix" result="effect1_dropShadow"/>
<feBlend mode="normal" in="SourceGraphic" in2="effect1_dropShadow" result="shape"/>
</filter>
<filter id="filter5_d" x="26" y="333" width="165" height="165" filterUnits="userSpaceOnUse" color-interpolation-filters="sRGB">
<feFlood flood-opacity="0" result="BackgroundImageFix"/>
<feColorMatrix in="SourceAlpha" type="matrix" values="0 0 0 0 0 0 0 0 0 0 0 0 0 0 0 0 0 0 127 0"/>
<feOffset dy="15"/>
<feGaussianBlur stdDeviation="15"/>
<feColorMatrix type="matrix" values="0 0 0 0 0.00392157 0 0 0 0 0.129412 0 0 0 0 0.12549 0 0 0 0.5 0"/>
<feBlend mode="normal" in2="BackgroundImageFix" result="effect1_dropShadow"/>
<feBlend mode="normal" in="SourceGraphic" in2="effect1_dropShadow" result="shape"/>
</filter>
<filter id="filter6_d" x="402" y="0" width="165" height="165" filterUnits="userSpaceOnUse" color-interpolation-filters="sRGB">
<feFlood flood-opacity="0" result="BackgroundImageFix"/>
<feColorMatrix in="SourceAlpha" type="matrix" values="0 0 0 0 0 0 0 0 0 0 0 0 0 0 0 0 0 0 127 0"/>
<feOffset dy="15"/>
<feGaussianBlur stdDeviation="15"/>
<feColorMatrix type="matrix" values="0 0 0 0 0.00392157 0 0 0 0 0.129412 0 0 0 0 0.12549 0 0 0 0.5 0"/>
<feBlend mode="normal" in2="BackgroundImageFix" result="effect1_dropShadow"/>
<feBlend mode="normal" in="SourceGraphic" in2="effect1_dropShadow" result="shape"/>
</filter>
<clipPath id="clip0">
<rect width="212" height="189" fill="white" transform="translate(131 324)"/>
</clipPath>
</defs>
</svg>
