<svg width="85" height="29" viewBox="0 0 85 29" fill="none" xmlns="http://www.w3.org/2000/svg">
<path fill-rule="evenodd" clip-rule="evenodd" d="M37.1416 16.0203V15.9847C37.1416 14.1643 35.8857 12.9682 34.3922 12.9682C32.8992 12.9682 31.5881 14.1821 31.5881 15.9847V16.0203C31.5881 17.8406 32.8992 19.0363 34.3922 19.0363C35.9037 19.0363 37.1416 17.8762 37.1416 16.0203ZM31.6427 19.2505V20.7141H29.4395V7.68564H31.6427V12.8612C32.3525 11.8798 33.3542 11.0944 34.902 11.0944C37.1785 11.0944 39.382 12.8612 39.382 15.9847V16.0203C39.382 19.1433 37.1965 20.9105 34.902 20.9105C33.3179 20.9105 32.3162 20.1251 31.6427 19.2505Z" fill="#6A7C7B"/>
<path fill-rule="evenodd" clip-rule="evenodd" d="M48.3777 15.6663C48.2325 14.2743 47.3946 13.1855 45.938 13.1855C44.5903 13.1855 43.6435 14.2029 43.4436 15.6663H48.3777ZM41.2578 16.3624V16.3268C41.2578 13.6316 43.2063 11.4187 45.9557 11.4187C49.0148 11.4187 50.5633 13.7744 50.5633 16.4873C50.5633 16.6837 50.5447 16.88 50.5264 17.094H43.4613C43.6984 18.629 44.809 19.4854 46.2291 19.4854C47.3034 19.4854 48.068 19.0929 48.8333 18.3615L50.1263 19.4854C49.2156 20.5566 47.9591 21.2526 46.1928 21.2526C43.4064 21.2526 41.2578 19.2717 41.2578 16.3624Z" fill="#6A7C7B"/>
<path fill-rule="evenodd" clip-rule="evenodd" d="M52.6318 7.68564H54.8351V12.7542C55.4545 11.862 56.3466 11.0944 57.8396 11.0944C60.0066 11.0944 61.263 12.5221 61.263 14.7174V20.7141H59.0598V15.3598C59.0598 13.8964 58.3129 13.0578 57.0023 13.0578C55.7273 13.0578 54.8351 13.9324 54.8351 15.3954V20.7141H52.6318V7.68564Z" fill="#6A7C7B"/>
<path fill-rule="evenodd" clip-rule="evenodd" d="M69.4812 17.0406C68.9167 16.8267 68.1343 16.6659 67.2779 16.6659C65.8945 16.6659 65.0744 17.2192 65.0744 18.1295V18.1651C65.0744 19.0575 65.8945 19.557 66.9319 19.557C68.3891 19.557 69.4812 18.754 69.4812 17.5761V17.0406ZM69.4271 20.9851V19.8249C68.7714 20.5926 67.7697 21.1814 66.3131 21.1814C64.4921 21.1814 62.8896 20.1641 62.8896 18.2721V18.2365C62.8896 16.1486 64.5468 15.1491 66.7866 15.1491C67.9519 15.1491 68.6988 15.3094 69.4449 15.5416V15.3632C69.4449 14.0601 68.6076 13.3463 67.0777 13.3463C66.0034 13.3463 65.2025 13.5784 64.3283 13.9351L63.7275 12.2042C64.7833 11.7401 65.8213 11.4187 67.3874 11.4187C70.2281 11.4187 71.6118 12.8824 71.6118 15.3988V20.9851H69.4271Z" fill="#6A7C7B"/>
<path fill-rule="evenodd" clip-rule="evenodd" d="M74.7119 7.68564H76.9152V20.7141H74.7119V7.68564Z" fill="#6A7C7B"/>
<path fill-rule="evenodd" clip-rule="evenodd" d="M80.1675 13.2541H78.9473V11.4515H80.1675V10.7733C80.1675 9.72036 80.4402 8.93494 80.9498 8.43547C81.4603 7.93537 82.17 7.68564 83.1168 7.68564C83.8814 7.68564 84.4098 7.79282 84.9017 7.93537V9.75595C84.4645 9.61318 84.0822 9.524 83.6089 9.524C82.7708 9.524 82.3338 9.9701 82.3338 10.9519V11.4693H84.8831V13.2541H82.3701V20.8213H80.1675V13.2541Z" fill="#6A7C7B"/>
<path fill-rule="evenodd" clip-rule="evenodd" d="M4.74213 26.9262C4.78402 26.6981 4.80502 26.4476 4.80502 26.1749L4.79934 24.4734L2.83255 24.4824C2.72982 24.4824 2.6296 24.4871 2.53208 24.4963C1.35088 24.522 0.401367 25.4735 0.401367 26.6436C0.401367 27.8298 1.37727 28.7914 2.5811 28.7914C3.68771 28.7914 4.60173 27.9788 4.74213 26.9262Z" fill="#6A7C7B"/>
<path fill-rule="evenodd" clip-rule="evenodd" d="M2.79193 23.5084H5.29008L5.35132 5.6551L2.86095 5.64383C1.60546 5.64342 0.575137 5.09318 0 4.21689V24.9386C0.588394 24.0761 1.61598 23.5084 2.79193 23.5084Z" fill="#6A7C7B"/>
<path fill-rule="evenodd" clip-rule="evenodd" d="M15.9338 20.5678C15.9338 21.3382 15.732 22.0515 15.3503 22.6309C14.6916 23.674 13.8273 24.3236 11.5682 24.3236H5.83034L5.82255 26.5748C5.82234 27.4953 5.4326 28.3095 4.7998 28.8756H11.7496C16.8158 28.8756 20.4928 25.3944 20.4928 20.5981C20.4928 18.265 19.6336 16.1778 18.0654 14.6604C16.9644 15.8683 15.5285 16.7489 13.889 17.2389C15.1091 17.8576 15.9338 19.1372 15.9338 20.5678Z" fill="#6A7C7B"/>
<path fill-rule="evenodd" clip-rule="evenodd" d="M5.90153 2.91721L5.89395 5.13417L9.81174 5.152C10.6405 5.152 11.3286 5.17905 11.7638 5.22516C13.3907 5.4719 14.618 6.91585 14.618 8.58298C14.618 9.29143 14.437 9.93861 14.0854 10.4698C13.8118 10.9018 13.5067 11.2528 13.0698 11.5108C15.0305 11.7361 16.7858 12.4681 18.2044 13.6618C19.2248 12.2744 19.8083 10.5485 19.8083 8.61351C19.8083 3.62239 15.9983 0 10.7497 0H4.63867C5.30935 0.471754 5.90153 1.33513 5.90153 2.91721Z" fill="#6A7C7B"/>
<path fill-rule="evenodd" clip-rule="evenodd" d="M4.74213 2.14117C4.78402 2.36921 4.80502 2.61968 4.80502 2.89241L4.79934 4.59396L2.83255 4.58495C2.72982 4.58495 2.6296 4.58025 2.53208 4.57105C1.35088 4.54537 0.401367 3.59383 0.401367 2.42376C0.401367 1.23755 1.37727 0.27594 2.5811 0.27594C3.68771 0.27594 4.60173 1.08851 4.74213 2.14117Z" fill="#6A7C7B"/>
<path fill-rule="evenodd" clip-rule="evenodd" d="M17.2203 14.1554C14.7068 16.7998 11.1452 16.7312 10.5734 16.7208C10.0292 16.711 9.48828 16.502 9.07331 16.0937C8.61432 15.6421 8.40312 15.0389 8.43957 14.4474C8.42963 13.9594 8.588 13.4657 8.92441 13.057C9.29373 12.6082 9.80946 12.3447 10.3496 12.279C10.9175 12.2099 14.4554 11.7749 17.2367 14.1501L17.2203 14.1554Z" fill="#6A7C7B"/>
</svg>
