<svg width="100" height="18" viewBox="0 0 100 18" fill="none" xmlns="http://www.w3.org/2000/svg">
<g clip-path="url(#clip0)">
<path d="M14 4.5L5 13.5" stroke="#00908A" stroke-width="1.5" stroke-linecap="round" stroke-linejoin="round"/>
<path d="M5 4.5L14 13.5" stroke="#00908A" stroke-width="1.5" stroke-linecap="round" stroke-linejoin="round"/>
<path d="M32.456 11.928C32.5306 11.928 32.5983 11.9583 32.659 12.019L33.191 12.6C32.7803 13.076 32.281 13.447 31.693 13.713C31.1096 13.979 30.405 14.112 29.579 14.112C28.8556 14.112 28.2 13.9883 27.612 13.741C27.024 13.489 26.5223 13.139 26.107 12.691C25.6916 12.2383 25.3696 11.697 25.141 11.067C24.9123 10.437 24.798 9.744 24.798 8.988C24.798 8.232 24.9193 7.539 25.162 6.909C25.4093 6.279 25.7546 5.73767 26.198 5.285C26.6413 4.83233 27.171 4.48233 27.787 4.235C28.4076 3.983 29.0913 3.857 29.838 3.857C30.5753 3.857 31.21 3.97133 31.742 4.2C32.2786 4.42867 32.7546 4.739 33.17 5.131L32.729 5.754C32.6963 5.80067 32.659 5.84033 32.617 5.873C32.575 5.901 32.5143 5.915 32.435 5.915C32.3743 5.915 32.309 5.894 32.239 5.852C32.1736 5.80533 32.0943 5.74933 32.001 5.684C31.9076 5.61867 31.798 5.54867 31.672 5.474C31.546 5.39933 31.3966 5.32933 31.224 5.264C31.0513 5.19867 30.8506 5.145 30.622 5.103C30.3933 5.05633 30.1296 5.033 29.831 5.033C29.2943 5.033 28.802 5.12633 28.354 5.313C27.9106 5.495 27.528 5.75633 27.206 6.097C26.884 6.43767 26.632 6.853 26.45 7.343C26.2726 7.833 26.184 8.38133 26.184 8.988C26.184 9.61333 26.2726 10.171 26.45 10.661C26.632 11.151 26.877 11.5663 27.185 11.907C27.4976 12.243 27.8663 12.4997 28.291 12.677C28.7156 12.8543 29.173 12.943 29.663 12.943C29.9616 12.943 30.23 12.9267 30.468 12.894C30.706 12.8567 30.9253 12.8007 31.126 12.726C31.3313 12.6513 31.5203 12.558 31.693 12.446C31.8703 12.3293 32.0476 12.1917 32.225 12.033C32.3043 11.963 32.3813 11.928 32.456 11.928ZM36.16 3.689V14H34.914V3.689H36.16ZM41.163 6.797C41.5877 6.797 41.9797 6.86933 42.339 7.014C42.6983 7.154 43.0087 7.35933 43.27 7.63C43.5313 7.896 43.7343 8.22733 43.879 8.624C44.0283 9.016 44.103 9.464 44.103 9.968C44.103 10.164 44.082 10.2947 44.04 10.36C43.998 10.4253 43.9187 10.458 43.802 10.458H39.084C39.0933 10.906 39.154 11.2957 39.266 11.627C39.378 11.9583 39.532 12.236 39.728 12.46C39.924 12.6793 40.1573 12.845 40.428 12.957C40.6987 13.0643 41.002 13.118 41.338 13.118C41.6507 13.118 41.919 13.083 42.143 13.013C42.3717 12.9383 42.5677 12.859 42.731 12.775C42.8943 12.691 43.0297 12.614 43.137 12.544C43.249 12.4693 43.3447 12.432 43.424 12.432C43.5267 12.432 43.606 12.4717 43.662 12.551L44.012 13.006C43.858 13.1927 43.6737 13.356 43.459 13.496C43.2443 13.6313 43.0133 13.7433 42.766 13.832C42.5233 13.9207 42.2713 13.986 42.01 14.028C41.7487 14.0747 41.4897 14.098 41.233 14.098C40.743 14.098 40.2903 14.0163 39.875 13.853C39.4643 13.685 39.1073 13.4423 38.804 13.125C38.5053 12.803 38.272 12.4063 38.104 11.935C37.936 11.4637 37.852 10.9223 37.852 10.311C37.852 9.81633 37.9267 9.35433 38.076 8.925C38.23 8.49567 38.4493 8.12467 38.734 7.812C39.0187 7.49467 39.3663 7.24733 39.777 7.07C40.1877 6.888 40.6497 6.797 41.163 6.797ZM41.191 7.714C40.589 7.714 40.1153 7.889 39.77 8.239C39.4247 8.58433 39.21 9.065 39.126 9.681H42.983C42.983 9.39167 42.9433 9.128 42.864 8.89C42.7847 8.64733 42.668 8.43967 42.514 8.267C42.36 8.08967 42.171 7.95433 41.947 7.861C41.7277 7.763 41.4757 7.714 41.191 7.714ZM50.9058 14H50.3528C50.2314 14 50.1334 13.9813 50.0588 13.944C49.9841 13.9067 49.9351 13.8273 49.9118 13.706L49.7718 13.048C49.5851 13.216 49.4031 13.3677 49.2258 13.503C49.0484 13.6337 48.8618 13.7457 48.6658 13.839C48.4698 13.9277 48.2598 13.9953 48.0358 14.042C47.8164 14.0887 47.5714 14.112 47.3008 14.112C47.0254 14.112 46.7664 14.0747 46.5238 14C46.2858 13.9207 46.0781 13.804 45.9008 13.65C45.7234 13.496 45.5811 13.3023 45.4738 13.069C45.3711 12.831 45.3198 12.551 45.3198 12.229C45.3198 11.949 45.3968 11.6807 45.5508 11.424C45.7048 11.1627 45.9521 10.9317 46.2928 10.731C46.6381 10.5303 47.0884 10.367 47.6438 10.241C48.1991 10.1103 48.8781 10.0357 49.6808 10.017V9.464C49.6808 8.91333 49.5618 8.498 49.3238 8.218C49.0904 7.93333 48.7428 7.791 48.2808 7.791C47.9774 7.791 47.7208 7.83067 47.5108 7.91C47.3054 7.98467 47.1258 8.071 46.9718 8.169C46.8224 8.26233 46.6918 8.34867 46.5798 8.428C46.4724 8.50267 46.3651 8.54 46.2578 8.54C46.1738 8.54 46.0991 8.519 46.0338 8.477C45.9731 8.43033 45.9241 8.37433 45.8868 8.309L45.6628 7.91C46.0548 7.532 46.4771 7.24967 46.9298 7.063C47.3824 6.87633 47.8841 6.783 48.4348 6.783C48.8314 6.783 49.1838 6.84833 49.4918 6.979C49.7998 7.10967 50.0588 7.29167 50.2688 7.525C50.4788 7.75833 50.6374 8.04067 50.7448 8.372C50.8521 8.70333 50.9058 9.06733 50.9058 9.464V14ZM47.6718 13.237C47.8911 13.237 48.0918 13.216 48.2738 13.174C48.4558 13.1273 48.6261 13.0643 48.7848 12.985C48.9481 12.901 49.1021 12.8007 49.2468 12.684C49.3961 12.5673 49.5408 12.4343 49.6808 12.285V10.808C49.1068 10.8267 48.6191 10.8733 48.2178 10.948C47.8164 11.018 47.4898 11.1113 47.2378 11.228C46.9858 11.3447 46.8014 11.4823 46.6848 11.641C46.5728 11.7997 46.5168 11.977 46.5168 12.173C46.5168 12.3597 46.5471 12.5207 46.6078 12.656C46.6684 12.7913 46.7501 12.9033 46.8528 12.992C46.9554 13.076 47.0768 13.139 47.2168 13.181C47.3568 13.2183 47.5084 13.237 47.6718 13.237ZM52.7935 14V6.909H53.5075C53.6428 6.909 53.7362 6.93467 53.7875 6.986C53.8388 7.03733 53.8738 7.126 53.8925 7.252L53.9765 8.358C54.2192 7.86333 54.5178 7.47833 54.8725 7.203C55.2318 6.923 55.6518 6.783 56.1325 6.783C56.3285 6.783 56.5058 6.80633 56.6645 6.853C56.8232 6.895 56.9702 6.95567 57.1055 7.035L56.9445 7.966C56.9118 8.08267 56.8395 8.141 56.7275 8.141C56.6622 8.141 56.5618 8.12 56.4265 8.078C56.2912 8.03133 56.1022 8.008 55.8595 8.008C55.4255 8.008 55.0615 8.134 54.7675 8.386C54.4782 8.638 54.2355 9.00433 54.0395 9.485V14H52.7935ZM67.524 3.969V5.075H62.708V8.582H66.824V9.688H62.708V14H61.343V3.969H67.524ZM70.4627 6.909V14H69.2167V6.909H70.4627ZM70.7427 4.683C70.7427 4.80433 70.717 4.91867 70.6657 5.026C70.619 5.12867 70.5537 5.222 70.4697 5.306C70.3904 5.38533 70.297 5.44833 70.1897 5.495C70.0824 5.54167 69.968 5.565 69.8467 5.565C69.7254 5.565 69.611 5.54167 69.5037 5.495C69.401 5.44833 69.3077 5.38533 69.2237 5.306C69.1444 5.222 69.0814 5.12867 69.0347 5.026C68.988 4.91867 68.9647 4.80433 68.9647 4.683C68.9647 4.56167 68.988 4.44733 69.0347 4.34C69.0814 4.228 69.1444 4.13233 69.2237 4.053C69.3077 3.969 69.401 3.90367 69.5037 3.857C69.611 3.81033 69.7254 3.787 69.8467 3.787C69.968 3.787 70.0824 3.81033 70.1897 3.857C70.297 3.90367 70.3904 3.969 70.4697 4.053C70.5537 4.13233 70.619 4.228 70.6657 4.34C70.717 4.44733 70.7427 4.56167 70.7427 4.683ZM74.0447 3.689V14H72.7987V3.689H74.0447ZM78.3898 14.112C77.8298 14.112 77.3981 13.9557 77.0948 13.643C76.7961 13.3303 76.6468 12.88 76.6468 12.292V7.952H75.7928C75.7181 7.952 75.6551 7.931 75.6038 7.889C75.5524 7.84233 75.5268 7.77233 75.5268 7.679V7.182L76.6888 7.035L76.9758 4.844C76.9851 4.774 77.0154 4.718 77.0667 4.676C77.1181 4.62933 77.1834 4.606 77.2628 4.606H77.8928V7.049H79.9228V7.952H77.8928V12.208C77.8928 12.5067 77.9651 12.7283 78.1098 12.873C78.2544 13.0177 78.4411 13.09 78.6698 13.09C78.8004 13.09 78.9124 13.0737 79.0058 13.041C79.1038 13.0037 79.1878 12.964 79.2578 12.922C79.3278 12.88 79.3861 12.8427 79.4328 12.81C79.4841 12.7727 79.5284 12.754 79.5658 12.754C79.6311 12.754 79.6894 12.7937 79.7408 12.873L80.1048 13.468C79.8901 13.6687 79.6311 13.8273 79.3278 13.944C79.0244 14.056 78.7118 14.112 78.3898 14.112ZM84.2704 6.797C84.6951 6.797 85.0871 6.86933 85.4464 7.014C85.8057 7.154 86.1161 7.35933 86.3774 7.63C86.6387 7.896 86.8417 8.22733 86.9864 8.624C87.1357 9.016 87.2104 9.464 87.2104 9.968C87.2104 10.164 87.1894 10.2947 87.1474 10.36C87.1054 10.4253 87.0261 10.458 86.9094 10.458H82.1914C82.2007 10.906 82.2614 11.2957 82.3734 11.627C82.4854 11.9583 82.6394 12.236 82.8354 12.46C83.0314 12.6793 83.2647 12.845 83.5354 12.957C83.8061 13.0643 84.1094 13.118 84.4454 13.118C84.7581 13.118 85.0264 13.083 85.2504 13.013C85.4791 12.9383 85.6751 12.859 85.8384 12.775C86.0017 12.691 86.1371 12.614 86.2444 12.544C86.3564 12.4693 86.4521 12.432 86.5314 12.432C86.6341 12.432 86.7134 12.4717 86.7694 12.551L87.1194 13.006C86.9654 13.1927 86.7811 13.356 86.5664 13.496C86.3517 13.6313 86.1207 13.7433 85.8734 13.832C85.6307 13.9207 85.3787 13.986 85.1174 14.028C84.8561 14.0747 84.5971 14.098 84.3404 14.098C83.8504 14.098 83.3977 14.0163 82.9824 13.853C82.5717 13.685 82.2147 13.4423 81.9114 13.125C81.6127 12.803 81.3794 12.4063 81.2114 11.935C81.0434 11.4637 80.9594 10.9223 80.9594 10.311C80.9594 9.81633 81.0341 9.35433 81.1834 8.925C81.3374 8.49567 81.5567 8.12467 81.8414 7.812C82.1261 7.49467 82.4737 7.24733 82.8844 7.07C83.2951 6.888 83.7571 6.797 84.2704 6.797ZM84.2984 7.714C83.6964 7.714 83.2227 7.889 82.8774 8.239C82.5321 8.58433 82.3174 9.065 82.2334 9.681H86.0904C86.0904 9.39167 86.0507 9.128 85.9714 8.89C85.8921 8.64733 85.7754 8.43967 85.6214 8.267C85.4674 8.08967 85.2784 7.95433 85.0544 7.861C84.8351 7.763 84.5831 7.714 84.2984 7.714ZM88.8052 14V6.909H89.5192C89.6545 6.909 89.7479 6.93467 89.7992 6.986C89.8505 7.03733 89.8855 7.126 89.9042 7.252L89.9882 8.358C90.2309 7.86333 90.5295 7.47833 90.8842 7.203C91.2435 6.923 91.6635 6.783 92.1442 6.783C92.3402 6.783 92.5175 6.80633 92.6762 6.853C92.8349 6.895 92.9819 6.95567 93.1172 7.035L92.9562 7.966C92.9235 8.08267 92.8512 8.141 92.7392 8.141C92.6739 8.141 92.5735 8.12 92.4382 8.078C92.3029 8.03133 92.1139 8.008 91.8712 8.008C91.4372 8.008 91.0732 8.134 90.7792 8.386C90.4899 8.638 90.2472 9.00433 90.0512 9.485V14H88.8052ZM98.5117 8.078C98.4557 8.18067 98.3694 8.232 98.2527 8.232C98.1827 8.232 98.1034 8.20633 98.0147 8.155C97.926 8.10367 97.8164 8.04767 97.6857 7.987C97.5597 7.92167 97.408 7.86333 97.2307 7.812C97.0534 7.756 96.8434 7.728 96.6007 7.728C96.3907 7.728 96.2017 7.756 96.0337 7.812C95.8657 7.86333 95.721 7.93567 95.5997 8.029C95.483 8.12233 95.392 8.232 95.3267 8.358C95.266 8.47933 95.2357 8.61233 95.2357 8.757C95.2357 8.939 95.287 9.09067 95.3897 9.212C95.497 9.33333 95.637 9.43833 95.8097 9.527C95.9824 9.61567 96.1784 9.695 96.3977 9.765C96.617 9.83033 96.841 9.90267 97.0697 9.982C97.303 10.0567 97.5294 10.1407 97.7487 10.234C97.968 10.3273 98.164 10.444 98.3367 10.584C98.5094 10.724 98.647 10.8967 98.7497 11.102C98.857 11.3027 98.9107 11.5453 98.9107 11.83C98.9107 12.1567 98.8524 12.46 98.7357 12.74C98.619 13.0153 98.4464 13.2557 98.2177 13.461C97.989 13.6617 97.709 13.8203 97.3777 13.937C97.0464 14.0537 96.6637 14.112 96.2297 14.112C95.735 14.112 95.287 14.0327 94.8857 13.874C94.4844 13.7107 94.1437 13.503 93.8637 13.251L94.1577 12.775C94.195 12.7143 94.2394 12.6677 94.2907 12.635C94.342 12.6023 94.4097 12.586 94.4937 12.586C94.5777 12.586 94.6664 12.6187 94.7597 12.684C94.853 12.7493 94.965 12.8217 95.0957 12.901C95.231 12.9803 95.392 13.0527 95.5787 13.118C95.77 13.1833 96.008 13.216 96.2927 13.216C96.5354 13.216 96.7477 13.1857 96.9297 13.125C97.1117 13.0597 97.2634 12.9733 97.3847 12.866C97.506 12.7587 97.5947 12.635 97.6507 12.495C97.7114 12.355 97.7417 12.2057 97.7417 12.047C97.7417 11.851 97.688 11.69 97.5807 11.564C97.478 11.4333 97.3404 11.3237 97.1677 11.235C96.995 11.1417 96.7967 11.0623 96.5727 10.997C96.3534 10.927 96.127 10.8547 95.8937 10.78C95.665 10.7053 95.4387 10.6213 95.2147 10.528C94.9954 10.43 94.7994 10.3087 94.6267 10.164C94.454 10.0193 94.314 9.842 94.2067 9.632C94.104 9.41733 94.0527 9.15833 94.0527 8.855C94.0527 8.58433 94.1087 8.32533 94.2207 8.078C94.3327 7.826 94.496 7.60667 94.7107 7.42C94.9254 7.22867 95.189 7.077 95.5017 6.965C95.8144 6.853 96.1714 6.797 96.5727 6.797C97.0394 6.797 97.457 6.87167 97.8257 7.021C98.199 7.16567 98.521 7.36633 98.7917 7.623L98.5117 8.078Z" fill="#00908A"/>
</g>
<defs>
<clipPath id="clip0">
<rect width="99" height="18" fill="white" transform="translate(0.5)"/>
</clipPath>
</defs>
</svg>
