<svg width="19" height="19" viewBox="0 0 19 19" fill="none" xmlns="http://www.w3.org/2000/svg">
<path d="M2.50684 5.19849H4.00684H16.0068" stroke="#B5BFC0" stroke-width="1.5" stroke-linecap="round" stroke-linejoin="round"/>
<path d="M6.25684 5.19849V3.69849C6.25684 3.30066 6.41487 2.91913 6.69618 2.63783C6.97748 2.35652 7.35901 2.19849 7.75684 2.19849H10.7568C11.1547 2.19849 11.5362 2.35652 11.8175 2.63783C12.0988 2.91913 12.2568 3.30066 12.2568 3.69849V5.19849M14.5068 5.19849V15.6985C14.5068 16.0963 14.3488 16.4778 14.0675 16.7591C13.7862 17.0405 13.4047 17.1985 13.0068 17.1985H5.50684C5.10901 17.1985 4.72748 17.0405 4.44618 16.7591C4.16487 16.4778 4.00684 16.0963 4.00684 15.6985V5.19849H14.5068Z" stroke="#B5BFC0" stroke-width="1.5" stroke-linecap="round" stroke-linejoin="round"/>
<path d="M7.75684 8.94849V13.4485" stroke="#B5BFC0" stroke-width="1.5" stroke-linecap="round" stroke-linejoin="round"/>
<path d="M10.7568 8.94849V13.4485" stroke="#B5BFC0" stroke-width="1.5" stroke-linecap="round" stroke-linejoin="round"/>
</svg>
