<svg width="30" height="30" viewBox="0 0 30 30" fill="none" xmlns="http://www.w3.org/2000/svg">
<rect width="30" height="30" rx="15" fill="#00908A"/>
<path d="M23.3281 22.0782C22.3438 22.0548 21.3828 22.0548 20.3984 22.0782C20.1875 22.0782 20.1406 22.0314 20.1406 21.8204C20.1406 20.086 20.1406 18.3282 20.1406 16.5939C20.1406 16.1954 20.1172 15.797 20 15.422C19.6484 14.2032 18.2422 13.7579 17.2344 14.5782C16.6953 15.0001 16.4844 15.586 16.4844 16.2892C16.4844 17.9298 16.4844 19.5704 16.4844 21.211C16.4844 21.422 16.4609 21.6329 16.4844 21.8673C16.5078 22.0548 16.4141 22.1017 16.25 22.0782C15.2422 22.0782 14.2578 22.0782 13.25 22.0782C13.0625 22.0782 13.0156 22.0314 13.0156 21.8439C13.0391 20.3673 13.0391 18.8907 13.0391 17.3907C13.0391 15.5626 13.0391 13.7345 13.0156 11.9298C13.0156 11.7189 13.0625 11.672 13.25 11.672C14.2578 11.672 15.2422 11.672 16.25 11.672C16.4375 11.672 16.4844 11.7189 16.4844 11.9064C16.4844 12.2814 16.4844 12.6564 16.4844 13.1017C16.5547 13.0314 16.5781 13.0079 16.6016 12.9845C17.5156 11.6485 18.8047 11.2735 20.3281 11.5079C22.0859 11.7892 23.2109 13.0079 23.4922 14.8829C23.5625 15.3282 23.5859 15.7735 23.5859 16.2189C23.5859 18.0939 23.5859 19.9454 23.5859 21.8204C23.5859 22.0079 23.5391 22.0782 23.3281 22.0782Z" fill="white"/>
<path d="M11.1406 16.875C11.1406 18.5156 11.1406 20.1562 11.1406 21.7969C11.1406 22.0078 11.0938 22.0781 10.8828 22.0781C9.89844 22.0547 8.91406 22.0781 7.92969 22.0781C7.74219 22.0781 7.69531 22.0312 7.69531 21.8437C7.69531 18.5391 7.69531 15.2109 7.69531 11.9062C7.69531 11.7422 7.74219 11.6719 7.92969 11.6719C8.9375 11.6719 9.94531 11.6719 10.9531 11.6719C11.1641 11.6719 11.1875 11.7422 11.1875 11.9297C11.1406 13.5703 11.1406 15.2109 11.1406 16.875Z" fill="white"/>
<path d="M11.3042 8.95332C11.0698 9.89082 10.1089 10.4299 9.00729 10.2424C7.83542 10.0549 7.17917 8.90645 7.60104 7.78145C7.88229 7.07832 8.56198 6.65645 9.42916 6.67988C10.7417 6.65645 11.6089 7.71113 11.3042 8.95332Z" fill="white"/>
</svg>
