<svg width="140" height="125" viewBox="0 0 140 125" fill="none" xmlns="http://www.w3.org/2000/svg">
<rect opacity="0.2" x="2" y="53" width="108" height="70" rx="5" fill="#FF7F7A"/>
<path d="M56.9693 10.3429L12.9704 17.9998C11.8822 18.1892 11.1535 19.2249 11.3429 20.3131L26.3571 106.589C26.5464 107.677 27.5821 108.406 28.6703 108.216L72.6693 100.56C73.7575 100.37 74.4862 99.3345 74.2968 98.2463L59.2826 11.9704C59.0933 10.8822 58.0576 10.1535 56.9693 10.3429Z" fill="#F0EEE9" stroke="#8E2D2A" stroke-width="1.5" stroke-miterlimit="10" stroke-linecap="round" stroke-linejoin="round"/>
<path d="M30.3926 58.8791L46.3068 56.9124L44.0381 41.1845L39.7756 46.6761L28.8913 38.3347L23.8243 44.9698L34.6438 53.3225L30.3926 58.8791Z" fill="white" stroke="#DC514C" stroke-width="1.5" stroke-miterlimit="10" stroke-linecap="round" stroke-linejoin="round"/>
<path d="M24.4481 75.7343L38.9993 67.3122L49.7961 87.8014L58.1445 83.7236L68.4469 92.9749" stroke="#DC514C" stroke-width="1.5" stroke-miterlimit="10" stroke-linecap="round" stroke-linejoin="round"/>
<path d="M47.9367 35.5802C51.1504 35.021 53.3021 31.9625 52.7429 28.7489C52.1836 25.5353 49.1251 23.3835 45.9115 23.9427C42.6979 24.502 40.5461 27.5605 41.1054 30.7741C41.6646 33.9877 44.7231 36.1395 47.9367 35.5802Z" fill="#FF7F7A"/>
<path d="M54.3438 76.209L50.5645 76.2283L50.5838 80.0076L54.3631 79.9883L54.3438 76.209Z" fill="#FF7F7A"/>
<path d="M52.7578 63.1057L59.429 61.9447" stroke="#8E2D2A" stroke-width="1.5" stroke-miterlimit="10" stroke-linecap="round" stroke-linejoin="round"/>
<path d="M53.334 66.441L60.0052 65.2801" stroke="#8E2D2A" stroke-width="1.5" stroke-miterlimit="10" stroke-linecap="round" stroke-linejoin="round"/>
<path d="M117.725 107.6L87.128 106.973L77.8486 76L108.445 76.7524L117.725 107.6Z" fill="#F0EEE9" stroke="#8E2D2A" stroke-width="1.5" stroke-miterlimit="10" stroke-linecap="round" stroke-linejoin="round"/>
<path d="M134.278 107.976L117.726 107.6L109.575 80.3889L121.112 80.6397L124.999 92.5524H129.639L134.278 107.976Z" fill="white" stroke="#8E2D2A" stroke-width="1.5" stroke-miterlimit="10" stroke-linecap="round" stroke-linejoin="round"/>
<path d="M121.238 90.2954L116.222 90.17L114.968 86.1573L118.604 86.2827H120.109L121.112 89.7938L121.238 90.2954Z" fill="#FF7F7A"/>
<path d="M100.296 111.738C100.296 113.494 98.9163 114.873 97.4116 114.873C95.9068 114.873 94.7782 113.368 94.6528 111.613C94.5274 109.355 96.0322 108.478 97.537 108.478C99.0417 108.603 100.296 109.982 100.296 111.738Z" fill="#8E2D2A"/>
<path d="M126.129 112.365C126.129 114.12 124.749 115.5 123.245 115.5C121.74 115.5 120.611 113.995 120.486 112.24C120.36 109.982 121.865 109.105 123.37 109.105C125 109.23 126.254 110.609 126.129 112.365Z" fill="#8E2D2A"/>
<path d="M78.6035 76.3763L117.477 106.848" stroke="#8E2D2A" stroke-width="1.5" stroke-miterlimit="10" stroke-linecap="round" stroke-linejoin="round"/>
<path d="M136.036 102.584L136.789 104.716" stroke="#8E2D2A" stroke-width="1.5" stroke-miterlimit="10" stroke-linecap="round" stroke-linejoin="round"/>
<path d="M88.2587 111.864H46" stroke="#8E2D2A" stroke-width="1.5" stroke-miterlimit="10" stroke-linecap="round" stroke-linejoin="round"/>
<path d="M59.9817 62.3364L118.964 67.891C121.714 68.1499 124.152 66.131 124.411 63.3818L127.793 27.4701C128.052 24.7208 126.033 22.2822 123.284 22.0233L64.3012 16.4688C61.5519 16.2099 59.1133 18.2287 58.8544 20.978L55.4725 56.8897C55.2136 59.6389 57.2324 62.0775 59.9817 62.3364Z" fill="white" stroke="#8E2D2A" stroke-width="1.5" stroke-miterlimit="10" stroke-linecap="round" stroke-linejoin="round"/>
<path d="M70.9743 53.2203L82.9742 45.0998L89.8902 50.5611L112.48 41.1859" stroke="#DC514C" stroke-width="1.5" stroke-miterlimit="10" stroke-linecap="round" stroke-linejoin="round"/>
<path d="M108.365 39.5044L114.035 40.4256L112.135 45.0758" stroke="#DC514C" stroke-width="1.5" stroke-miterlimit="10" stroke-linecap="round" stroke-linejoin="round"/>
<path d="M92.6929 26.5561L78.6951 25.0838C77.5966 24.9682 76.6124 25.7651 76.4968 26.8636L76.1792 29.883C76.0637 30.9815 76.8606 31.9657 77.9591 32.0813L91.9569 33.5536C93.0554 33.6691 94.0396 32.8723 94.1551 31.7738L94.4727 28.7544C94.5882 27.6559 93.7914 26.6717 92.6929 26.5561Z" fill="#DC514C"/>
<g clip-path="url(#clip0)">
<path d="M69.2002 22.1542L67.9874 33.1405" stroke="#8E2D2A" stroke-width="1.5" stroke-linecap="round" stroke-linejoin="round"/>
<path d="M71.45 24.4244L67.7434 24.0152C67.2846 23.9646 66.8244 24.1002 66.4638 24.3921C66.1032 24.6841 65.8719 25.1086 65.8207 25.5721C65.7696 26.0357 65.9027 26.5003 66.1909 26.8639C66.4791 27.2275 66.8988 27.4602 67.3575 27.5109L69.8286 27.7837C70.2873 27.8343 70.7069 28.067 70.9952 28.4306C71.2834 28.7942 71.4165 29.2589 71.3653 29.7224C71.3142 30.186 71.0829 30.6104 70.7223 30.9024C70.3617 31.1944 69.9014 31.33 69.4427 31.2793L65.2419 30.8156" stroke="#8E2D2A" stroke-width="1.5" stroke-linecap="round" stroke-linejoin="round"/>
</g>
<defs>
<clipPath id="clip0">
<rect width="11.933" height="12.0579" fill="white" transform="translate(63.3232 21) rotate(6.2993)"/>
</clipPath>
</defs>
</svg>
