<svg width="18" height="17" viewBox="0 0 18 17" fill="none" xmlns="http://www.w3.org/2000/svg">
<path d="M13.5 5.66666C13.5 4.53949 13.0259 3.45848 12.182 2.66145C11.3381 1.86442 10.1935 1.41666 9 1.41666C7.80653 1.41666 6.66193 1.86442 5.81802 2.66145C4.97411 3.45848 4.5 4.53949 4.5 5.66666C4.5 10.625 2.25 12.0417 2.25 12.0417H15.75C15.75 12.0417 13.5 10.625 13.5 5.66666Z" fill="#004B48" stroke="#004B48" stroke-width="1.5" stroke-linecap="round" stroke-linejoin="round"/>
<path d="M10.2971 14.875C10.1653 15.0897 9.97603 15.2679 9.74832 15.3917C9.52061 15.5156 9.26243 15.5808 8.99965 15.5808C8.73686 15.5808 8.47869 15.5156 8.25098 15.3917C8.02327 15.2679 7.83401 15.0897 7.70215 14.875" stroke="#004B48" stroke-width="1.5" stroke-linecap="round" stroke-linejoin="round"/>
</svg>
