<svg width="25" height="24" viewBox="0 0 25 24" fill="none" xmlns="http://www.w3.org/2000/svg">
<g clip-path="url(#clip0)">
<path d="M6.89062 9V2H18.8906V9" stroke="#00908A" stroke-width="1.5" stroke-linecap="round" stroke-linejoin="round"/>
<path d="M6.89062 18H4.89062C4.36019 18 3.85148 17.7893 3.47641 17.4142C3.10134 17.0391 2.89063 16.5304 2.89062 16V11C2.89062 10.4696 3.10134 9.96086 3.47641 9.58579C3.85148 9.21071 4.36019 9 4.89062 9H20.8906C21.4211 9 21.9298 9.21071 22.3048 9.58579C22.6799 9.96086 22.8906 10.4696 22.8906 11V16C22.8906 16.5304 22.6799 17.0391 22.3048 17.4142C21.9298 17.7893 21.4211 18 20.8906 18H18.8906" stroke="#00908A" stroke-width="1.5" stroke-linecap="round" stroke-linejoin="round"/>
<path d="M18.8906 14H6.89062V22H18.8906V14Z" stroke="#00908A" stroke-width="1.5" stroke-linecap="round" stroke-linejoin="round"/>
</g>
<defs>
<clipPath id="clip0">
<rect width="24" height="24" fill="white" transform="translate(0.890625)"/>
</clipPath>
</defs>
</svg>
