<svg width="140" height="125" viewBox="0 0 140 125" fill="none" xmlns="http://www.w3.org/2000/svg">
<g clip-path="url(#clip0)">
<rect opacity="0.2" x="42.4268" y="41" width="60" height="60" rx="5" transform="rotate(45 42.4268 41)" fill="#FF7F7A"/>
<path d="M75 109C44.3061 109 22 85.2191 22 56C22 26.6887 45.7809 3 75 3C104.311 3 127.723 21.9878 128 56C128 60.9774 127.355 65.7704 126.157 70.287C124.497 76.3704 121.732 81.993 118.137 86.9704C117.031 88.5374 115.741 90.1043 114.45 91.487" fill="#F0EEE9"/>
<path d="M75 109C44.3061 109 22 85.2191 22 56C22 26.6887 45.7809 3 75 3C104.311 3 127.723 21.9878 128 56C128 60.9774 127.355 65.7704 126.157 70.287C124.497 76.3704 121.732 81.993 118.137 86.9704C117.031 88.5374 115.741 90.1043 114.45 91.487" stroke="#8E2D2A" stroke-width="1.5" stroke-miterlimit="10" stroke-linecap="round" stroke-linejoin="round"/>
<path d="M115 91.5L77 109.5L71 100.5L90 85.5L115 91.5Z" fill="white"/>
<path d="M114.657 92.6072C114.102 93.9929 113.179 95.0091 111.701 95.2862C110.869 97.1338 109.391 98.0576 107.821 97.6881C107.543 97.9653 107.266 98.15 107.082 98.4272C106.804 98.7043 106.527 98.7967 106.25 98.7967C105.511 99.351 104.772 99.9976 104.033 100.552C103.386 101.014 102.647 101.476 101.908 101.845L133.964 116.903L139.877 104.34L114.657 92.6072Z" fill="#FF7F7A"/>
<path d="M107.637 83.8311L133.223 90.0129C134.297 90.2723 134.957 91.3525 134.698 92.4261L127.968 120.317C127.709 121.391 126.628 122.051 125.555 121.792L101.919 116.081C100.843 115.821 100.183 114.737 100.446 113.662L103.942 99.351" stroke="#8E2D2A" stroke-width="1.5" stroke-miterlimit="10" stroke-linecap="round" stroke-linejoin="round"/>
<path d="M63.3877 78.7497C65.2353 90.1125 70.9629 99.9049 70.9629 99.9049L94.7971 87.5258L100.34 85.6782L98.6771 80.6897C100.617 77.4563 98.1228 72.9297 94.4276 68.0335L63.3877 78.7497Z" fill="#8E2D2A"/>
<path d="M85.1002 110.529C73.8297 113.3 61.5431 112.469 52.5822 104.616C44.545 97.5954 44.0831 86.0478 48.7946 76.9945C52.6745 69.7888 59.7879 65.4469 67.3631 62.6755C69.2107 62.0289 71.1507 61.3822 72.9983 60.9203C73.5526 60.7355 74.1992 60.6431 74.7535 60.6431C78.0792 60.366 80.7583 61.8441 82.4211 64.0612C85.6544 68.3107 85.3773 75.4241 79.7421 78.1031C79.1878 78.3802 78.6335 78.565 77.9869 78.7498C73.4602 79.9507 67.6402 81.5212 65.1459 85.8631C63.4831 88.7269 63.6679 90.6669 66.9012 92.145C71.4278 94.1773 76.324 94.1773 81.2202 93.0688C81.0354 98.9811 82.7907 104.616 85.1002 110.529Z" fill="#8E2D2A"/>
<path d="M93.4956 87.694C85.7356 92.2207 75.5737 95.5464 67.0747 91.574C63.8414 90.0959 63.6566 88.2483 65.3195 85.2921C67.8138 80.9502 73.7261 79.3798 78.1604 78.1788C89.6156 75.1303 84.7194 57.3008 73.2642 60.3493C63.8414 62.8436 53.8643 67.3703 49.0605 76.4236C44.2567 85.3845 44.811 97.0245 52.8481 104.045C67.9985 117.256 94.4194 110.327 107.999 97.8559" stroke="#DC514C" stroke-width="1.5" stroke-miterlimit="10" stroke-linecap="round" stroke-linejoin="round"/>
<path d="M126.31 70.2507C124.647 76.3478 121.876 81.9831 118.273 86.9716C107.28 79.2116 93.3304 70.9898 80.5819 77.364C79.9352 77.6412 79.2885 77.9183 78.6419 78.1031C74.5771 79.2116 70.2352 77.9183 67.9257 74.0383C66.1705 71.0821 66.2629 66.6479 68.1105 63.8764C68.8495 62.7679 69.8657 61.9365 71.159 61.4746C71.9905 61.1974 72.8219 60.9203 73.5609 60.7355C78.7343 59.165 83.5381 58.3336 88.1571 58.1488C102.291 57.4098 114.301 62.3984 126.31 70.2507Z" fill="#8E2D2A"/>
<path d="M105.328 85.0317C111.795 83.646 117.984 85.2165 117.615 90.4822L105.328 85.0317Z" fill="white"/>
<path d="M105.328 85.0317C111.795 83.646 117.984 85.2165 117.615 90.4822" stroke="#DC514C" stroke-width="1.5" stroke-miterlimit="10" stroke-linecap="round" stroke-linejoin="round"/>
<path d="M120.295 94.7319L120.849 97.7805L117.985 96.3948L106.068 80.0434L108.378 78.4729L120.295 94.7319Z" fill="white" stroke="#DC514C" stroke-width="1.5" stroke-miterlimit="10" stroke-linecap="round" stroke-linejoin="round"/>
<path d="M93.999 87.5002C93.999 87.5002 102.651 82.0756 111.612 86.8794C120.573 91.6832 119.834 95.1937 114.66 92.9765C111.704 91.6832 109.949 90.7594 109.949 90.7594" fill="white"/>
<path d="M93.999 87.5002C93.999 87.5002 102.651 82.0756 111.612 86.8794C120.573 91.6832 119.834 95.1937 114.66 92.9765C111.704 91.6832 109.949 90.7594 109.949 90.7594" stroke="#DC514C" stroke-width="1.5" stroke-miterlimit="10" stroke-linecap="round" stroke-linejoin="round"/>
<path d="M114.661 92.9764C114.846 93.7155 112.998 96.8564 110.504 95.4707L114.661 92.9764Z" fill="white"/>
<path d="M114.661 92.9764C114.846 93.7155 112.998 96.8564 110.504 95.4707" stroke="#DC514C" stroke-width="1.5" stroke-miterlimit="10" stroke-linecap="round" stroke-linejoin="round"/>
<path d="M80.8479 59.0727L77.3374 50.1118C78.6307 48.9108 79.3698 47.0632 79.5545 44.2918C79.8317 38.1023 72.3489 36.809 69.1155 39.6728C65.8822 42.629 65.0508 45.1232 65.0508 45.1232L66.4365 46.1394C66.4365 46.1394 65.9746 50.4813 70.0393 51.4975L73.7346 60.828C73.5498 60.828 73.2727 60.9203 73.0879 61.0127C71.2403 61.4746 69.3003 62.1213 67.4527 62.768C68.0993 63.2299 68.6536 63.5994 69.3003 63.8765C74.1965 66.5556 78.7231 66.0937 82.5107 64.1537C85.2821 62.6756 87.684 60.4584 89.4393 58.1489C86.5755 58.1489 83.8041 58.5184 80.8479 59.0727Z" fill="white" stroke="#DC514C" stroke-width="2.01496" stroke-miterlimit="10" stroke-linecap="round" stroke-linejoin="round"/>
<path d="M111.61 96.1172C111.61 96.1172 110.594 99.3505 106.898 97.5953L111.61 96.1172Z" fill="white"/>
<path d="M111.61 96.1172C111.61 96.1172 110.594 99.3505 106.898 97.5953" stroke="#DC514C" stroke-width="1.5" stroke-miterlimit="10" stroke-linecap="round" stroke-linejoin="round"/>
<path d="M102.742 32.0976C97.6606 35.8852 95.4435 31.2662 90.4549 35.6081C86.6673 38.8414 78.4454 34.4995 76.7826 36.6242C76.3207 37.2709 75.4892 37.4557 74.8426 36.9014C74.7502 36.9014 74.7502 36.809 74.6578 36.809C72.1635 34.869 69.7616 33.6681 68.6531 37.0861C68.0988 39.7652 73.0873 43.6452 75.1197 44.2918C76.5978 44.7537 76.0435 46.6937 74.7502 46.9709C74.473 47.0633 74.3807 47.248 74.473 47.6175C73.734 54.5461 80.9397 58.0566 90.1778 58.888C99.4158 59.7194 97.753 51.3128 97.4758 46.6014C97.1987 41.8899 106.16 41.2433 109.762 35.9776C113.365 30.6195 107.822 28.31 102.742 32.0976Z" fill="#3A0807"/>
<path d="M120.848 98.4269L127.961 100.09" stroke="#8E2D2A" stroke-width="1.5" stroke-miterlimit="10" stroke-linecap="round" stroke-linejoin="round"/>
<path d="M109.302 101.383L126.762 105.171" stroke="#8E2D2A" stroke-width="1.5" stroke-miterlimit="10" stroke-linecap="round" stroke-linejoin="round"/>
<path d="M105.515 115.24L104.499 119.028" stroke="#8E2D2A" stroke-width="1.5" stroke-miterlimit="10" stroke-linecap="round" stroke-linejoin="round"/>
<path d="M108.1 115.61L106.991 119.397" stroke="#8E2D2A" stroke-width="1.5" stroke-miterlimit="10" stroke-linecap="round" stroke-linejoin="round"/>
<path d="M121.864 119.213L120.848 123" stroke="#8E2D2A" stroke-width="1.5" stroke-miterlimit="10" stroke-linecap="round" stroke-linejoin="round"/>
<path d="M119.557 118.381L118.541 122.169" stroke="#8E2D2A" stroke-width="1.5" stroke-miterlimit="10" stroke-linecap="round" stroke-linejoin="round"/>
<path d="M25.1884 12.1395C25.9407 11.4859 27.0593 11.4859 27.8116 12.1395L31.561 15.3967C31.9703 15.7523 32.5063 15.9264 33.0464 15.8793L37.9942 15.448C38.987 15.3615 39.8921 16.019 40.1165 16.9899L41.2353 21.8289C41.3574 22.3571 41.6887 22.8131 42.1533 23.0925L46.4097 25.6518C47.2638 26.1653 47.6095 27.2292 47.2204 28.1467L45.2812 32.7191C45.0695 33.2182 45.0695 33.7818 45.2812 34.2809L47.2204 38.8533C47.6095 39.7708 47.2638 40.8347 46.4097 41.3482L42.1533 43.9076C41.6887 44.1869 41.3574 44.6429 41.2353 45.1711L40.1165 50.0101C39.8921 50.981 38.987 51.6385 37.9943 51.552L33.0464 51.1207C32.5063 51.0736 31.9703 51.2477 31.561 51.6033L27.8116 54.8605C27.0593 55.5141 25.9407 55.5141 25.1884 54.8605L21.439 51.6033C21.0297 51.2477 20.4937 51.0736 19.9536 51.1207L15.0057 51.552C14.013 51.6385 13.1079 50.981 12.8835 50.0101L11.7647 45.1711C11.6426 44.6429 11.3113 44.1869 10.8467 43.9076L6.59026 41.3482C5.73621 40.8347 5.39052 39.7708 5.77962 38.8533L7.71882 34.2809C7.93048 33.7818 7.93048 33.2182 7.71882 32.7191L5.77962 28.1467C5.39052 27.2292 5.73621 26.1653 6.59026 25.6518L10.8467 23.0925C11.3113 22.8131 11.6426 22.3571 11.7647 21.8289L12.8835 16.9899C13.1079 16.019 14.013 15.3615 15.0057 15.448L19.9536 15.8793C20.4937 15.9264 21.0297 15.7523 21.439 15.3967L25.1884 12.1395Z" fill="#FF7F7A"/>
<circle cx="26.5" cy="33.5" r="11.75" fill="white" stroke="#8E2D2A" stroke-width="1.5"/>
<path d="M32.5152 29.4695L25.2994 36.8164L22.0195 33.4769" stroke="#8E2D2A" stroke-width="1.5" stroke-linecap="round" stroke-linejoin="round"/>
</g>
<defs>
<clipPath id="clip0">
<rect width="140" height="125" fill="white"/>
</clipPath>
</defs>
</svg>
