<svg width="16" height="17" viewBox="0 0 16 17" fill="none" xmlns="http://www.w3.org/2000/svg">
<path d="M12 5.83325C12 4.77239 11.5786 3.75497 10.8284 3.00482C10.0783 2.25468 9.06087 1.83325 8 1.83325C6.93913 1.83325 5.92172 2.25468 5.17157 3.00482C4.42143 3.75497 4 4.77239 4 5.83325C4 10.4999 2 11.8333 2 11.8333H14C14 11.8333 12 10.4999 12 5.83325Z" fill="white" stroke="white" stroke-width="1.5" stroke-linecap="round" stroke-linejoin="round"/>
<path d="M9.15432 14.5C9.03712 14.7021 8.86888 14.8698 8.66647 14.9864C8.46406 15.1029 8.23458 15.1643 8.00099 15.1643C7.7674 15.1643 7.53792 15.1029 7.33551 14.9864C7.13309 14.8698 6.96486 14.7021 6.84766 14.5" stroke="white" stroke-width="1.5" stroke-linecap="round" stroke-linejoin="round"/>
</svg>
