<svg width="81" height="46" viewBox="0 0 81 46" fill="none" xmlns="http://www.w3.org/2000/svg">
<path d="M59.9297 41.9167C69.5947 41.9167 77.4297 34.0817 77.4297 24.4167C77.4297 14.7517 69.5947 6.91667 59.9297 6.91667C50.2647 6.91667 42.4297 14.7517 42.4297 24.4167C42.4297 34.0817 50.2647 41.9167 59.9297 41.9167Z" stroke="#004B48" stroke-width="2.78725" stroke-linecap="round" stroke-linejoin="round"/>
<path d="M59.2334 9.94652V26.2799L69.7334 13.7683C66.8943 11.3831 63.2316 9.94652 59.2334 9.94652Z" fill="#C1CCCD"/>
<path d="M59.9297 3.41667V5.751" stroke="#004B48" stroke-width="4.18088" stroke-linecap="round" stroke-linejoin="round"/>
<path d="M61.0967 2.25L58.7624 2.25" stroke="#004B48" stroke-width="4.18088" stroke-linecap="round" stroke-linejoin="round"/>
<path d="M69.7161 14.0995L58.6739 22.9927C57.6875 23.7871 57.6483 25.2764 58.5917 26.1216C59.5123 26.9465 60.9478 26.7769 61.651 25.7603L69.7161 14.0995Z" fill="#004B48"/>
<rect x="12.6055" y="14.6567" width="23.8209" height="3.13433" rx="1.56716" fill="#C1CCCD"/>
<rect x="6.33203" y="23.4328" width="30.0896" height="3.13433" rx="1.56716" fill="#C1CCCD"/>
<rect x="0.0664062" y="31.5821" width="36.3582" height="3.13433" rx="1.56716" fill="#C1CCCD"/>
</svg>
