<svg width="140" height="125" viewBox="0 0 140 125" fill="none" xmlns="http://www.w3.org/2000/svg">
<rect opacity="0.2" x="90.7871" y="11" width="68.9954" height="68.9954" rx="5" transform="rotate(45 90.7871 11)" fill="#00908A"/>
<path d="M44.2263 93C37.896 92.4451 31.9613 90.7012 26.8179 87.9268C17.2433 82.8537 9.96337 74.5305 6.08604 64.4634C4.10781 59.2317 3 53.5244 3 47.5793C3 44.4878 3.31652 41.3963 3.87042 38.4634C6.7982 23.9573 16.6102 11.9878 29.6665 6.04268C35.443 3.42683 41.7733 2 48.4993 2C73.6624 2 93.7612 18.3293 93.9986 47.5793C94.1568 67.7134 81.0214 84.8354 62.8217 90.8598" fill="#F4F6F7"/>
<path d="M44.2263 93C37.896 92.4451 31.9613 90.7012 26.8179 87.9268C17.2433 82.8536 9.96337 74.5305 6.08604 64.4634C4.10781 59.2317 3 53.5244 3 47.5793C3 44.4878 3.31652 41.3963 3.87042 38.4634C6.7982 23.9573 16.6102 11.9878 29.6665 6.04268C35.443 3.42683 41.7733 2 48.4993 2C73.6624 2 93.7612 18.3293 93.9986 47.5793C94.1568 67.7134 81.0214 84.8354 62.8217 90.8598" stroke="#004B48" stroke-width="1.5" stroke-miterlimit="10" stroke-linecap="round" stroke-linejoin="round"/>
<path d="M63.7992 94.7428L68.9079 92.7472L77.6883 115.497L58.052 123L49.2715 100.33L56.0564 97.6962" fill="white"/>
<path d="M63.7992 94.7428L68.9079 92.7472L77.6883 115.497L58.052 123L49.2715 100.33L56.0564 97.6962" stroke="#004B48" stroke-width="1.5" stroke-miterlimit="10" stroke-linecap="round" stroke-linejoin="round"/>
<path d="M28.1968 68.8805C25.4828 71.5944 20.0549 72.0734 17.4207 68.8805C10.2367 60.1798 5.44734 49.6432 4.25 38.468C7.20344 23.8605 17.1014 11.8073 30.2722 5.82056C17.1014 20.1886 15.0261 42.2995 28.1968 58.1044C30.8309 61.2175 31.3099 65.6875 28.1968 68.8805Z" fill="#004B48"/>
<path d="M33.6251 79.2574C31.1506 83.4081 29.0752 86.2818 27.3989 88.1975C17.7403 83.0888 10.3967 74.7075 6.48535 64.57C20.3745 47.009 22.3701 46.6897 27.9576 53.8738C28.0375 53.9536 28.0375 53.9536 28.1173 54.0334C30.033 56.4281 32.0286 58.5833 33.6251 60.8183C36.9776 65.6875 38.6539 70.7962 33.6251 79.2574Z" fill="#004B48" stroke="#004B48" stroke-width="1.5" stroke-miterlimit="10" stroke-linecap="round" stroke-linejoin="round"/>
<path d="M57.0138 86.1219C50.0692 85.9623 34.5836 84.8448 34.3441 74.6275C34.1047 65.2882 19.5769 65.2882 19.8164 74.6275C20.0559 82.8492 24.6856 89.7938 31.5503 94.184C39.0537 98.9734 48.3929 99.3725 57.0138 99.612C66.353 99.7716 66.353 86.2816 57.0138 86.1219Z" fill="white" stroke="#004B48" stroke-width="1.5" stroke-miterlimit="10" stroke-linecap="round" stroke-linejoin="round"/>
<path d="M48.7122 89.3947C49.4306 87.7982 49.9095 87 51.2665 85.643C43.7632 85.1641 34.5836 82.6097 34.3441 74.5476C34.1047 65.2084 19.5769 65.2084 19.8164 74.5476C20.0559 82.7694 24.6856 89.714 31.5503 94.1042C36.4195 97.2173 42.0869 98.4944 47.8341 99.0532C47.435 95.8603 47.3552 92.5077 48.7122 89.3947Z" fill="#004B48"/>
<path d="M62.0416 92.428C63.3187 95.6209 61.403 99.5322 59.168 100.011" stroke="#004B48" stroke-width="1.5" stroke-miterlimit="10" stroke-linecap="round" stroke-linejoin="round"/>
<path d="M58.2907 103.763L57.6521 106.158L56.2951 104.082L54.2197 89.4748L56.2153 89.1555L58.2907 103.763Z" fill="#004B48"/>
<path d="M51.0244 90.5922C52.0621 98.0157 54.6164 102.566 56.612 100.809C57.6497 99.8516 55.0155 95.7806 54.9357 94.7429" fill="white"/>
<path d="M51.0244 90.5922C52.0621 98.0157 54.6164 102.566 56.612 100.809C57.6497 99.8516 55.0155 95.7806 54.9357 94.7429" stroke="#004B48" stroke-width="1.5" stroke-miterlimit="10" stroke-linecap="round" stroke-linejoin="round"/>
<path d="M60.1251 93.865C62.2803 101.448 59.1672 103.923 58.1295 102.805C57.6506 102.326 57.9698 100.331 57.8102 98.5745C57.6506 96.579 57.0918 94.743 57.0918 94.743" fill="white"/>
<path d="M60.1251 93.865C62.2803 101.448 59.1672 103.923 58.1295 102.805C57.6506 102.326 57.9698 100.331 57.8102 98.5745C57.6506 96.579 57.0918 94.743 57.0918 94.743" stroke="#004B48" stroke-width="1.5" stroke-miterlimit="10" stroke-linecap="round" stroke-linejoin="round"/>
<path d="M57.6475 106.158H67.7849" stroke="#004B48" stroke-width="1.5" stroke-miterlimit="10" stroke-linecap="round" stroke-linejoin="round"/>
<path d="M59.2451 108.712H69.4624" stroke="#004B48" stroke-width="1.5" stroke-miterlimit="10" stroke-linecap="round" stroke-linejoin="round"/>
<path d="M36.5 77C35.5 79.5 30.5 82 30.5 82" stroke="white" stroke-width="1.5" stroke-miterlimit="10" stroke-linecap="round" stroke-linejoin="round"/>
<path d="M45.8333 46.7695C44.8754 43.0977 38.8887 40.4635 36.0949 45.0134C34.8178 47.0888 34.4985 48.8449 34.8976 50.2817L28.6714 54.9114C28.432 54.6719 28.2723 54.4325 28.0329 54.1132C27.7136 57.0666 27.3145 64.8094 27.3145 64.8094L33.5406 60.8981C33.3011 60.499 32.9819 60.1797 32.7424 59.7806L39.5273 54.7518C42.8799 56.0289 44.7158 52.6764 44.7158 52.6764L46.2324 52.5966C46.1526 52.6764 46.7912 50.4413 45.8333 46.7695Z" fill="white" stroke="#004B48" stroke-width="1.5" stroke-miterlimit="10" stroke-linecap="round" stroke-linejoin="round"/>
<path d="M47.4302 45.0932C46.5522 47.2484 41.0444 47.6476 39.3681 47.1686C38.091 46.7695 37.5322 48.4458 38.3304 49.244C38.969 49.9624 36.3349 50.6808 35.6963 50.601C35.4568 50.5212 35.2174 50.5212 34.9779 50.3615C34.5788 48.8449 34.8981 47.0888 36.1752 44.9336C37.4524 42.7784 40.5655 42.1398 43.2795 41.9801C45.9934 41.8205 48.2285 42.1398 47.4302 45.0932Z" fill="#004B48"/>
<path d="M86.1884 48.1395C86.9407 47.4859 88.0593 47.4859 88.8116 48.1395L92.561 51.3967C92.9703 51.7523 93.5063 51.9264 94.0464 51.8793L98.9942 51.448C99.987 51.3615 100.892 52.019 101.117 52.9899L102.235 57.8289C102.357 58.3571 102.689 58.8131 103.153 59.0925L107.41 61.6518C108.264 62.1653 108.609 63.2292 108.22 64.1467L106.281 68.7191C106.07 69.2182 106.07 69.7818 106.281 70.2809L108.22 74.8533C108.609 75.7708 108.264 76.8347 107.41 77.3482L103.153 79.9076C102.689 80.1869 102.357 80.6429 102.235 81.1711L101.117 86.0101C100.892 86.981 99.987 87.6385 98.9943 87.552L94.0464 87.1207C93.5063 87.0736 92.9703 87.2477 92.561 87.6033L88.8116 90.8605C88.0593 91.5141 86.9407 91.5141 86.1884 90.8605L82.439 87.6033C82.0297 87.2477 81.4937 87.0736 80.9536 87.1207L76.0057 87.552C75.013 87.6385 74.1079 86.981 73.8835 86.0101L72.7647 81.1711C72.6426 80.6429 72.3113 80.1869 71.8467 79.9076L67.5903 77.3482C66.7362 76.8347 66.3905 75.7708 66.7796 74.8533L68.7188 70.2809C68.9305 69.7818 68.9305 69.2182 68.7188 68.7191L66.7796 64.1467C66.3905 63.2292 66.7362 62.1653 67.5903 61.6518L71.8467 59.0925C72.3113 58.8131 72.6426 58.3571 72.7647 57.8289L73.8835 52.9899C74.1079 52.019 75.013 51.3615 76.0057 51.448L80.9536 51.8793C81.4937 51.9264 82.0297 51.7523 82.439 51.3967L86.1884 48.1395Z" fill="#00908A"/>
<circle cx="87.5" cy="69.5" r="11.75" fill="#F4F6F7" stroke="#004B48" stroke-width="1.5"/>
<path d="M93.5152 66.4695L86.2994 73.8164L83.0195 70.4769" stroke="#004B48" stroke-width="1.5" stroke-linecap="round" stroke-linejoin="round"/>
</svg>
