<svg width="30" height="30" viewBox="0 0 30 30" fill="none" xmlns="http://www.w3.org/2000/svg">
<rect width="30" height="30" rx="15" fill="#00908A"/>
<path d="M15.0008 5.80005C9.92804 5.80005 5.80084 9.92725 5.80084 15C5.80084 16.584 6.21004 18.1416 6.98604 19.516L5.81564 23.692C5.77724 23.8292 5.81444 23.9764 5.91364 24.0784C5.99004 24.1572 6.09404 24.2 6.20084 24.2C6.23284 24.2 6.26524 24.196 6.29684 24.1884L10.6552 23.1088C11.986 23.8232 13.4848 24.2 15.0008 24.2C20.0736 24.2 24.2008 20.0728 24.2008 15C24.2008 9.92725 20.0736 5.80005 15.0008 5.80005ZM19.6288 18.2464C19.432 18.7912 18.488 19.2884 18.0344 19.3552C17.6272 19.4148 17.112 19.4404 16.5464 19.2628C16.2036 19.1548 15.7636 19.0116 15.2 18.7712C12.8308 17.7608 11.2836 15.4052 11.1652 15.2496C11.0472 15.094 10.2008 13.9852 10.2008 12.8376C10.2008 11.69 10.8108 11.1256 11.0276 10.892C11.2444 10.6584 11.5 10.6 11.6576 10.6C11.8152 10.6 11.9724 10.602 12.1104 10.6084C12.2556 10.6156 12.4504 10.5536 12.642 11.0088C12.8388 11.476 13.3112 12.6236 13.3696 12.7408C13.4288 12.8576 13.468 12.994 13.3896 13.1496C13.3112 13.3052 13.272 13.4024 13.1536 13.5388C13.0352 13.6752 12.9056 13.8428 12.7992 13.9476C12.6808 14.064 12.558 14.19 12.6956 14.4236C12.8332 14.6572 13.3072 15.4208 14.0096 16.0392C14.9116 16.8336 15.6728 17.08 15.9088 17.1968C16.1448 17.3136 16.2828 17.294 16.4204 17.1384C16.558 16.9824 17.0108 16.4572 17.168 16.224C17.3252 15.9908 17.4828 16.0292 17.6996 16.1072C17.9164 16.1848 19.0776 16.7488 19.3136 16.8656C19.5496 16.9824 19.7072 17.0408 19.7664 17.138C19.8256 17.2348 19.8256 17.702 19.6288 18.2464Z" fill="white"/>
</svg>
